<svg width="21" height="21" viewBox="0 0 21 21" fill="none" xmlns="http://www.w3.org/2000/svg">
<path d="M1.3125 17.7188H19.6875" stroke="#ED2939" stroke-width="1.5" stroke-linecap="round" stroke-linejoin="round"/>
<path d="M11.8125 17.7188V3.28125C11.8125 3.1072 11.7434 2.94028 11.6203 2.81721C11.4972 2.69414 11.3303 2.625 11.1562 2.625H3.28125C3.1072 2.625 2.94028 2.69414 2.81721 2.81721C2.69414 2.94028 2.625 3.1072 2.625 3.28125V17.7188" stroke="#ED2939" stroke-width="1.5" stroke-linecap="round" stroke-linejoin="round"/>
<path d="M18.375 17.7188V8.53125C18.375 8.3572 18.3059 8.19028 18.1828 8.06721C18.0597 7.94414 17.8928 7.875 17.7188 7.875H11.8125" stroke="#ED2939" stroke-width="1.5" stroke-linecap="round" stroke-linejoin="round"/>
<path d="M5.25 5.90625H7.875" stroke="#ED2939" stroke-width="1.5" stroke-linecap="round" stroke-linejoin="round"/>
<path d="M6.5625 11.1562H9.1875" stroke="#ED2939" stroke-width="1.5" stroke-linecap="round" stroke-linejoin="round"/>
<path d="M5.25 14.4375H7.875" stroke="#ED2939" stroke-width="1.5" stroke-linecap="round" stroke-linejoin="round"/>
<path d="M14.4375 14.4375H15.75" stroke="#ED2939" stroke-width="1.5" stroke-linecap="round" stroke-linejoin="round"/>
<path d="M14.4375 11.1562H15.75" stroke="#ED2939" stroke-width="1.5" stroke-linecap="round" stroke-linejoin="round"/>
</svg>
