<svg width="28" height="28" viewBox="0 0 28 28" fill="none" xmlns="http://www.w3.org/2000/svg">
<path d="M14.4376 23.625H5.21726C5.10626 23.6265 4.99608 23.6057 4.89324 23.5639C4.79039 23.5221 4.69697 23.4601 4.61847 23.3816C4.53997 23.3031 4.47799 23.2097 4.43619 23.1068C4.39438 23.004 4.3736 22.8938 4.37507 22.7828V13.5625C4.37507 10.8938 5.43523 8.33432 7.32231 6.44724C9.2094 4.56015 11.7688 3.5 14.4376 3.5V3.5C15.759 3.5 17.0675 3.76027 18.2883 4.26596C19.5092 4.77165 20.6184 5.51285 21.5528 6.44724C22.4872 7.38163 23.2284 8.49091 23.7341 9.71175C24.2398 10.9326 24.5001 12.2411 24.5001 13.5625V13.5625C24.5001 14.8839 24.2398 16.1924 23.7341 17.4133C23.2284 18.6341 22.4872 19.7434 21.5528 20.6778C20.6184 21.6121 19.5092 22.3533 18.2883 22.859C17.0675 23.3647 15.759 23.625 14.4376 23.625V23.625Z" stroke="#070504" stroke-width="2" stroke-linecap="round" stroke-linejoin="round"/>
<path d="M10.9375 12.25H17.5" stroke="#070504" stroke-width="2" stroke-linecap="round" stroke-linejoin="round"/>
<path d="M10.9375 15.75H17.5" stroke="#070504" stroke-width="2" stroke-linecap="round" stroke-linejoin="round"/>
</svg>
