<svg width="30" height="30" viewBox="0 0 30 30" fill="none" xmlns="http://www.w3.org/2000/svg">
<path d="M4.46673 29.4973L0.502747 25.5333C-0.167582 24.8629 -0.167582 23.7763 0.502747 23.106L23.106 0.502747C23.7763 -0.167582 24.8629 -0.167582 25.5333 0.502747L29.4973 4.46673C30.1676 5.13705 30.1676 6.22372 29.4973 6.89404L6.89404 29.4973C6.22372 30.1676 5.13705 30.1676 4.46673 29.4973Z" fill="#FB4E4E"/>
<path d="M23.106 29.4973L0.502747 6.89404C-0.167582 6.22372 -0.167582 5.13705 0.502747 4.46673L4.46673 0.502747C5.13705 -0.167582 6.22372 -0.167582 6.89404 0.502747L29.4969 23.1056C30.1672 23.776 30.1672 24.8626 29.4969 25.5329L25.5333 29.4973C24.8629 30.1676 23.7763 30.1676 23.106 29.4973Z" fill="#FB4E4E"/>
</svg>
