<svg width="28" height="28" viewBox="0 0 28 28" fill="none" xmlns="http://www.w3.org/2000/svg">
<path d="M14 23.625C14 23.625 3.0625 17.5 3.0625 10.0625C3.0625 8.74768 3.51804 7.47348 4.35162 6.45668C5.18519 5.43988 6.34531 4.7433 7.63459 4.48544C8.92387 4.22759 10.2627 4.42439 11.4232 5.04237C12.5837 5.66034 13.4943 6.66132 14 7.87499C14.5057 6.66132 15.4163 5.66034 16.5768 5.04237C17.7373 4.42439 19.0761 4.22759 20.3654 4.48544C21.6547 4.7433 22.8148 5.43988 23.6484 6.45668C24.482 7.47348 24.9375 8.74768 24.9375 10.0625C24.9375 17.5 14 23.625 14 23.625Z" fill="#FF6262" stroke="#FF6262" stroke-width="2" stroke-linecap="round" stroke-linejoin="round"/>
</svg>
