<svg width="16" height="16" viewBox="0 0 16 16" fill="none" xmlns="http://www.w3.org/2000/svg">
<path d="M3 2.5L13 13.5" stroke="#525050" stroke-linecap="round" stroke-linejoin="round"/>
<path d="M9.68123 9.85002C9.22244 10.2703 8.62218 10.5024 7.99998 10.5C7.49539 10.5 7.00263 10.3472 6.58648 10.0619C6.17033 9.77654 5.85026 9.37194 5.66835 8.90129C5.48645 8.43063 5.45122 7.91595 5.5673 7.4249C5.68338 6.93384 5.94533 6.48941 6.31873 6.15002" stroke="#525050" stroke-linecap="round" stroke-linejoin="round"/>
<path d="M4.625 4.28748C2.075 5.57498 1 7.99998 1 7.99998C1 7.99998 3 12.5 8 12.5C9.17161 12.5095 10.3286 12.2396 11.375 11.7125" stroke="#525050" stroke-linecap="round" stroke-linejoin="round"/>
<path d="M13.0375 10.5688C14.4 9.35002 15 8.00002 15 8.00002C15 8.00002 13 3.50002 8.00005 3.50002C7.56658 3.49916 7.13382 3.5347 6.7063 3.60627" stroke="#525050" stroke-linecap="round" stroke-linejoin="round"/>
<path d="M8.46875 5.54376C9.0004 5.6445 9.48487 5.91543 9.84903 6.31567C10.2132 6.71591 10.4373 7.22373 10.4875 7.76251" stroke="#525050" stroke-linecap="round" stroke-linejoin="round"/>
</svg>
