<svg width="31" height="26" viewBox="0 0 31 26" fill="none" xmlns="http://www.w3.org/2000/svg">
<path d="M4.60278 15.8426V18.9111C4.61505 21.0683 5.6338 20.733 6.38865 20.0856L10.7398 16.1571V18.144C10.7398 20.0081 11.1694 20.4454 13.0412 20.4454H19.9454C19.9454 20.4454 23.9413 25.144 23.9728 25.1126C24.5481 25.8153 26.1062 25.5759 26.0824 24.281V20.4454H28.3838C30.2633 20.4454 30.6852 19.9782 30.6852 18.144V6.63704C30.6852 4.79593 30.2326 4.33565 28.3838 4.33565H20.7125V2.80139C20.7125 0.906579 20.3596 0.5 18.4111 0.5H2.30139C0.490963 0.5 0 0.891236 0 2.80139V12.7741C0 14.6451 0.421921 15.8426 2.30139 15.8426H4.60278ZM23.781 18.144V21.7656L20.7125 18.144H13.8083C13.233 18.144 13.0412 17.9369 13.0412 17.3768V7.40417C13.0412 6.89019 13.279 6.63704 13.8083 6.63704H27.6167C28.1452 6.63704 28.3838 6.92087 28.3838 7.35814V17.3768C28.3838 17.9299 28.1084 18.144 27.6167 18.144H23.781Z" fill="#ED2939"/>
</svg>
