<svg width="40" height="40" viewBox="0 0 40 40" fill="none" xmlns="http://www.w3.org/2000/svg">
    <path
        d="M32 27.8476V19.1789C32 18.344 31.9993 17.9264 31.8978 17.5378C31.8078 17.1936 31.6602 16.8677 31.4603 16.5733C31.2347 16.2411 30.9213 15.9656 30.2928 15.4158L22.7928 8.8533C21.6263 7.83254 21.043 7.32241 20.3866 7.12829C19.8082 6.95724 19.1916 6.95724 18.6132 7.12829C17.9572 7.32227 17.3747 7.83191 16.21 8.85113L8.70748 15.4158C8.07916 15.9656 7.76572 16.2411 7.54019 16.5733C7.34033 16.8677 7.19151 17.1936 7.10155 17.5378C7.00003 17.9264 7.00003 18.344 7.00003 19.1789V27.8476C7.00003 29.3036 7.00003 30.0314 7.23791 30.6058C7.55508 31.3714 8.16303 31.9804 8.92875 32.2976C9.50303 32.5356 10.2311 32.5356 11.6871 32.5356C13.1432 32.5356 13.872 32.5356 14.4463 32.2976C15.212 31.9804 15.8198 31.3715 16.137 30.6058C16.3749 30.0315 16.375 29.3036 16.375 27.8475V26.285C16.375 24.559 17.7741 23.16 19.5 23.16C21.226 23.16 22.625 24.559 22.625 26.285V27.8475C22.625 29.3036 22.625 30.0315 22.8628 30.6058C23.18 31.3715 23.788 31.9804 24.5538 32.2976C25.128 32.5356 25.8561 32.5356 27.3121 32.5356C28.7682 32.5356 29.4971 32.5356 30.0713 32.2976C30.8371 31.9804 31.4449 31.3714 31.7621 30.6058C31.9999 30.0314 32 29.3036 32 27.8476Z"
        stroke="#525050" stroke-width="3" stroke-linecap="round" stroke-linejoin="round" />
</svg>
