<svg width="40" height="40" viewBox="0 0 40 40" fill="none" xmlns="http://www.w3.org/2000/svg">
    <path
        d="M30.2522 7.97729C29.6507 7.72811 28.8883 7.7281 27.3635 7.72812C25.8391 7.72814 25.0763 7.72813 24.475 7.97721C23.6731 8.30936 23.0359 8.94651 22.7038 9.74838C22.4547 10.3498 22.4547 11.1122 22.4547 12.637C22.4547 14.161 22.4547 14.9244 22.7037 15.5256C23.0359 16.3275 23.6731 16.9647 24.4749 17.2968C25.0764 17.5459 25.8387 17.5459 27.3636 17.5459C28.8884 17.5459 29.6496 17.5448 30.2511 17.2957C31.0529 16.9635 31.69 16.3263 32.0223 15.5245C32.2713 14.9231 32.2724 14.1618 32.2725 12.6371C32.2724 11.1122 32.2725 10.3498 32.0233 9.74835C31.6912 8.94654 31.054 8.30937 30.2522 7.97729Z"
        stroke="#525050" stroke-width="3" stroke-linecap="round" stroke-linejoin="round" />
    <path
        d="M15.5255 7.97675C14.9241 7.72765 14.1617 7.72765 12.6368 7.72765C11.1124 7.72765 10.3496 7.7277 9.74834 7.97667C8.94641 8.30887 8.30923 8.94605 7.97715 9.74786C7.72798 10.3493 7.72795 11.1118 7.72799 12.6366C7.72795 14.1606 7.72806 14.9238 7.9771 15.5251C8.30923 16.327 8.94639 16.9641 9.74827 17.2962C10.3496 17.5454 11.1121 17.5454 12.6369 17.5454C14.1616 17.5455 14.923 17.5443 15.5244 17.2951C16.3262 16.9631 16.9634 16.3259 17.2956 15.524C17.5447 14.9226 17.5457 14.1614 17.5457 12.6365C17.5457 11.1117 17.5457 10.3493 17.2966 9.74789C16.9645 8.94602 16.3274 8.3089 15.5255 7.97675Z"
        stroke="#525050" stroke-width="3" stroke-linecap="round" stroke-linejoin="round" />
    <path
        d="M27.3641 22.455C25.8397 22.455 25.077 22.455 24.4755 22.704C23.6736 23.0362 23.0364 23.6733 22.7044 24.4752C22.4553 25.0767 22.4554 25.8391 22.4553 27.3639C22.4553 28.8877 22.4554 29.6512 22.7044 30.2524C23.0364 31.0543 23.6736 31.6914 24.4755 32.0236C25.0769 32.2727 25.8393 32.2727 27.3641 32.2727C28.8889 32.2728 29.6502 32.2717 30.2517 32.0225C31.0535 31.6904 31.6907 31.0532 32.0229 30.2513C32.272 29.65 32.273 28.8888 32.273 27.3638C32.273 25.8391 32.273 25.0766 32.0239 24.4753C31.6917 23.6733 31.0547 23.0363 30.2527 22.7041C29.6514 22.455 28.8889 22.455 27.3641 22.455Z"
        stroke="#525050" stroke-width="3" stroke-linecap="round" stroke-linejoin="round" />
    <path
        d="M15.5256 22.704C14.924 22.4549 14.1616 22.4549 12.6368 22.4549C11.1124 22.455 10.3496 22.4549 9.74828 22.704C8.94635 23.0362 8.30929 23.6732 7.9771 24.4752C7.72804 25.0765 7.728 25.839 7.72805 27.3638C7.72801 28.8878 7.72801 29.6512 7.97701 30.2524C8.30919 31.0543 8.94636 31.6915 9.74819 32.0235C10.3496 32.2728 11.112 32.2727 12.6369 32.2727C14.1617 32.2727 14.923 32.2715 15.5244 32.0225C16.3262 31.6902 16.9633 31.0531 17.2956 30.2513C17.5446 29.6499 17.5458 28.8886 17.5458 27.3638C17.5456 25.839 17.5458 25.0766 17.2966 24.4751C16.9645 23.6734 16.3273 23.0362 15.5256 22.704Z"
        stroke="#525050" stroke-width="3" stroke-linecap="round" stroke-linejoin="round" />
</svg>
