<svg width="30" height="30" viewBox="0 0 30 30" fill="none" xmlns="http://www.w3.org/2000/svg">
    <path
        d="M27.1966 25.7216L22.762 21.2869C24.4195 19.2991 25.4183 16.7436 25.4183 13.9591C25.4183 7.64057 20.2777 2.5 13.9591 2.5C7.64057 2.5 2.5 7.6405 2.5 13.9591C2.5 20.2778 7.64057 25.4183 13.9591 25.4183C16.7445 25.4183 19.3007 24.4188 21.2889 22.7604L25.7234 27.1949C25.9268 27.3983 26.1935 27.5 26.46 27.5C26.7265 27.5 26.9932 27.3983 27.1966 27.1949C27.6035 26.788 27.6035 26.1284 27.1966 25.7216ZM9.09768 18.8206C9.09768 16.1355 11.2743 13.9591 13.9591 13.9591C12.2332 13.9591 10.8338 12.5599 10.8338 10.8338C10.8338 9.10775 12.2332 7.70869 13.9591 7.70869C15.6851 7.70869 17.0843 9.10782 17.0843 10.8338C17.0843 12.5599 15.6851 13.9591 13.9591 13.9591C16.6439 13.9591 18.8205 16.1355 18.8205 18.8206H9.09768Z"
        fill="#ED2939" />
</svg>
