<svg width="40" height="40" viewBox="0 0 40 40" fill="none" xmlns="http://www.w3.org/2000/svg">
    <path
        d="M23.6683 27.5224V28.8918C23.6683 31.1608 21.829 33 19.56 33C17.2911 33 15.4518 31.1608 15.4518 28.8918V27.5224M23.6683 27.5224H15.4518M23.6683 27.5224H28.5851C29.1089 27.5224 29.3721 27.5224 29.5842 27.4509C29.9894 27.3142 30.3064 26.996 30.4431 26.5909C30.5149 26.378 30.5149 26.1139 30.5149 25.5859C30.5149 25.3549 30.5146 25.2394 30.4965 25.1292C30.4624 24.9211 30.3816 24.7237 30.2587 24.5524C30.1936 24.4619 30.1109 24.3793 29.9481 24.2164L29.4147 23.683C29.2426 23.5108 29.1459 23.2774 29.1459 23.034V17.9365C29.1459 12.6424 24.8542 8.35067 19.56 8.35069C14.2659 8.3507 9.97419 12.6424 9.97419 17.9365V23.034C9.97419 23.2775 9.87729 23.5108 9.70519 23.683L9.1718 24.2164C9.00844 24.3797 8.92665 24.4618 8.86154 24.5524C8.73852 24.7239 8.65702 24.9211 8.62286 25.1292C8.60478 25.2394 8.60478 25.3549 8.60478 25.586C8.60478 26.1139 8.60478 26.3778 8.67661 26.5908C8.81327 26.996 9.13173 27.3142 9.53688 27.4509C9.749 27.5224 10.0112 27.5224 10.535 27.5224H15.4518M27.8019 7C29.6906 8.42325 31.1785 10.3114 32.1208 12.4805M11.3189 7C9.43019 8.42325 7.94226 10.3114 7 12.4805"
        stroke="#525050" stroke-width="3" stroke-linecap="round" stroke-linejoin="round" />
</svg>
