<svg width="22" height="22" viewBox="0 0 22 22" fill="none" xmlns="http://www.w3.org/2000/svg">
<path d="M18.0505 18.0489C19.5272 16.5723 17.5683 12.2193 13.6753 8.32623C9.78224 4.43319 5.42923 2.47434 3.95256 3.95101C2.47589 5.42768 4.43474 9.78069 8.32778 13.6737C12.2208 17.5668 16.5738 19.5256 18.0505 18.0489Z" stroke="#070504" stroke-width="2" stroke-linecap="round" stroke-linejoin="round"/>
<path d="M13.6753 13.6738C17.5683 9.78073 19.5272 5.42772 18.0505 3.95105C16.5738 2.47438 12.2208 4.43323 8.32778 8.32627C4.43474 12.2193 2.47589 16.5723 3.95256 18.049C5.42923 19.5257 9.78224 17.5668 13.6753 13.6738Z" stroke="#070504" stroke-width="2" stroke-linecap="round" stroke-linejoin="round"/>
<path d="M11 12.0312C11.5695 12.0312 12.0312 11.5695 12.0312 11C12.0312 10.4305 11.5695 9.96875 11 9.96875C10.4305 9.96875 9.96875 10.4305 9.96875 11C9.96875 11.5695 10.4305 12.0312 11 12.0312Z" fill="#070504"/>
</svg>
