<svg width="19" height="22" viewBox="0 0 19 22" fill="none" xmlns="http://www.w3.org/2000/svg">
<path d="M17.4881 10.3669L2.21211 1.81092C2.08343 1.73984 1.93615 1.70963 1.78989 1.72433C1.64362 1.73903 1.5053 1.79793 1.39334 1.89319C1.28137 1.98846 1.20109 2.11556 1.16316 2.25759C1.12524 2.39962 1.13148 2.54983 1.18105 2.68823L4.05716 10.7558C4.12052 10.9125 4.12052 11.0876 4.05716 11.2442L1.18105 19.3118C1.13148 19.4502 1.12524 19.6004 1.16316 19.7424C1.20109 19.8845 1.28137 20.0116 1.39334 20.1068C1.5053 20.2021 1.64362 20.261 1.78989 20.2757C1.93615 20.2904 2.08343 20.2602 2.21211 20.1891L17.4881 11.6331C17.6012 11.5706 17.6954 11.4788 17.7611 11.3675C17.8267 11.2562 17.8613 11.1293 17.8613 11C17.8613 10.8708 17.8267 10.7439 17.7611 10.6325C17.6954 10.5212 17.6012 10.4295 17.4881 10.3669V10.3669Z" stroke="white" stroke-width="2" stroke-linecap="round" stroke-linejoin="round"/>
<path d="M4.14746 11H9.93586" stroke="white" stroke-width="2" stroke-linecap="round" stroke-linejoin="round"/>
</svg>
