<svg width="32" height="32" viewBox="0 0 32 32" fill="none" xmlns="http://www.w3.org/2000/svg">
<path d="M27.4374 15.125L6.32487 3.29998C6.14703 3.20174 5.94349 3.15999 5.74134 3.1803C5.53918 3.20062 5.34801 3.28202 5.19327 3.41368C5.03853 3.54535 4.92757 3.72102 4.87516 3.91731C4.82274 4.11361 4.83136 4.32121 4.89987 4.51248L8.87487 15.6625C8.96244 15.879 8.96244 16.121 8.87487 16.3375L4.89987 27.4875C4.83136 27.6788 4.82274 27.8864 4.87516 28.0827C4.92757 28.2789 5.03853 28.4546 5.19327 28.5863C5.34801 28.7179 5.53918 28.7994 5.74134 28.8197C5.94349 28.84 6.14703 28.7982 6.32487 28.7L27.4374 16.875C27.5937 16.7885 27.724 16.6617 27.8147 16.5079C27.9054 16.354 27.9532 16.1786 27.9532 16C27.9532 15.8214 27.9054 15.646 27.8147 15.4921C27.724 15.3382 27.5937 15.2115 27.4374 15.125Z" fill="#ED2939"/>
<path d="M9 16H17" stroke="#F6F7FB" stroke-linecap="round" stroke-linejoin="round"/>
</svg>
