<svg width="22" height="26" viewBox="0 0 22 26" fill="none" xmlns="http://www.w3.org/2000/svg">
<path d="M17.9265 19.6998L14.621 18.3488C14.3149 18.2006 14.0235 17.7926 14.0158 17.6672V16.5743C14.0158 16.5038 14.0235 16.4333 14.0244 16.3961C14.5911 15.6573 16.4398 13.053 16.4398 10.5537C16.4398 7.10071 14.248 4.78034 10.9856 4.78034C7.72339 4.78034 5.53154 7.10071 5.53154 10.5537C5.53154 13.0527 7.38003 15.657 7.93247 16.3655C7.94771 16.4337 7.95552 16.5038 7.95552 16.5743L7.95562 17.6608C7.94795 17.7912 7.65669 18.2006 7.35483 18.3465L4.0417 19.7013C3.02046 20.1706 2.28545 21.11 2.07637 22.2097L1.68213 23.7939L10.9856 25.5001L20.2892 23.7939L19.8958 22.2135C19.6854 21.1096 18.9504 20.1706 17.9265 19.6998ZM9.99829 20.044C9.99829 20.287 10.1417 20.5069 10.3611 20.6085V23.2734L7.88247 20.0706L8.08843 19.9857C8.88799 19.6183 9.75098 18.6274 9.75098 17.6672V16.5743C9.75098 16.2676 9.70029 15.9652 9.60029 15.6748L9.53975 15.514L9.44932 15.4022C9.42808 15.3757 7.32705 12.7358 7.32705 10.5538C7.32705 7.62082 9.21694 6.5761 10.9856 6.5761C12.7543 6.5761 14.6443 7.62082 14.6443 10.5538C14.6443 12.7187 12.6093 15.293 12.5229 15.4015L12.4187 15.5368L12.3714 15.6733C12.2711 15.9637 12.2203 16.267 12.2203 16.5744V17.6673C12.2203 18.6275 13.0833 19.6184 13.886 19.9872L14.089 20.0702L11.6098 23.2739C11.6098 23.2739 11.6098 20.6089 11.6098 20.6085C11.8291 20.5069 11.9725 20.287 11.9725 20.0441C11.9725 19.6995 11.6925 19.4194 11.3482 19.4194H10.6227C10.2784 19.4193 9.99829 19.6994 9.99829 20.044Z" fill="#ED2939"/>
<path d="M9.77248 7.43541C9.68859 7.43541 9.60788 7.45475 9.53273 7.49264C9.25051 7.63483 8.89587 7.8903 8.7467 8.1818C8.68176 8.30841 8.66984 8.45358 8.71296 8.58971C8.75627 8.72653 8.85002 8.838 8.97673 8.90245C9.0528 8.94152 9.13747 8.96237 9.2214 8.96237C9.42101 8.96237 9.60153 8.85206 9.68908 8.68073C9.70641 8.65343 9.8197 8.54235 10.0122 8.44533C10.2748 8.313 10.3809 7.99157 10.2487 7.72887C10.1576 7.54762 9.97516 7.43541 9.77248 7.43541Z" fill="#ED2939"/>
<path d="M9.14946 10.5537C9.14946 10.2596 8.91025 10.0204 8.61621 10.0204C8.32222 10.0204 8.08301 10.2596 8.08301 10.5537C8.08301 11.2179 8.32578 12.036 8.80488 12.9859C8.89614 13.1671 9.07876 13.2797 9.2814 13.2797C9.36406 13.2797 9.44697 13.2596 9.52109 13.2221C9.7835 13.0898 9.88945 12.7683 9.75718 12.506C9.35967 11.7175 9.14946 11.0423 9.14946 10.5537Z" fill="#ED2939"/>
<path d="M10.9852 3.2276C11.3295 3.2276 11.6096 2.94747 11.6096 2.60328V1.12448C11.6096 0.780238 11.3295 0.500111 10.9852 0.500111C10.6409 0.500111 10.3608 0.780238 10.3608 1.12448V2.60328C10.3609 2.94747 10.6409 3.2276 10.9852 3.2276Z" fill="#ED2939"/>
<path d="M4.6752 5.47556C4.79297 5.59343 4.94976 5.65827 5.11675 5.65827C5.28374 5.65827 5.44048 5.59343 5.55815 5.47556C5.67612 5.35769 5.74116 5.20075 5.74116 5.03396C5.74116 4.86716 5.67612 4.71023 5.55815 4.59231L4.51265 3.5468C4.39478 3.42888 4.23804 3.36408 4.07124 3.36408C3.90454 3.36408 3.7478 3.42888 3.62979 3.5468C3.51182 3.66467 3.44678 3.8216 3.44678 3.9884C3.44678 4.1552 3.51182 4.31213 3.62979 4.43L4.6752 5.47556Z" fill="#ED2939"/>
<path d="M17.2955 16.3294C17.1777 16.2115 17.0209 16.1467 16.854 16.1467C16.6872 16.1467 16.5304 16.2115 16.4125 16.3294C16.2945 16.4473 16.2295 16.6042 16.2295 16.771C16.2295 16.9378 16.2945 17.0944 16.4125 17.2127L17.4579 18.2582C17.5756 18.376 17.7324 18.4413 17.8994 18.4413C18.0661 18.4413 18.2229 18.3761 18.3409 18.2582C18.4588 18.1403 18.5239 17.9833 18.5239 17.8165C18.5239 17.6497 18.4588 17.4932 18.3409 17.3749L17.2955 16.3294Z" fill="#ED2939"/>
<path d="M3.31094 10.9025C3.31094 10.5582 3.03091 10.2781 2.68657 10.2781H1.20786C0.863574 10.2781 0.583496 10.5582 0.583496 10.9025C0.583496 11.2466 0.863574 11.5268 1.20786 11.5268L2.68657 11.5272C3.03091 11.5272 3.31094 11.247 3.31094 10.9025Z" fill="#ED2939"/>
<path d="M20.7633 10.2781H19.2846C18.9403 10.2781 18.6602 10.5583 18.6602 10.9025C18.6602 11.2471 18.9403 11.5272 19.2846 11.5272H20.7633C21.1076 11.5272 21.3876 11.247 21.3876 10.9025C21.3876 10.5583 21.1076 10.2781 20.7633 10.2781Z" fill="#ED2939"/>
<path d="M4.07124 18.4412C4.23794 18.4412 4.39478 18.376 4.51265 18.2581L5.55864 17.213C5.80181 16.9692 5.8019 16.5731 5.55874 16.3294C5.44087 16.2115 5.28413 16.1466 5.11733 16.1466C4.95063 16.1466 4.7937 16.2115 4.67559 16.3294L3.62979 17.3749C3.51182 17.4927 3.44678 17.6497 3.44678 17.8165C3.44678 17.9833 3.51172 18.1402 3.62949 18.2581C3.74751 18.376 3.90444 18.4412 4.07124 18.4412Z" fill="#ED2939"/>
<path d="M16.8545 5.65866C17.021 5.65866 17.1778 5.59382 17.296 5.47595L18.342 4.43044C18.5852 4.18669 18.5852 3.79055 18.3421 3.54719C18.2242 3.42931 18.0674 3.36447 17.9006 3.36447C17.7338 3.36447 17.577 3.42931 17.4589 3.54719L16.4131 4.59269C16.1697 4.83605 16.1696 5.2322 16.413 5.47595C16.5311 5.59382 16.6878 5.65866 16.8545 5.65866Z" fill="#ED2939"/>
</svg>
