<svg width="23" height="26" viewBox="0 0 23 26" fill="none" xmlns="http://www.w3.org/2000/svg">
<path fill-rule="evenodd" clip-rule="evenodd" d="M5.33929 2.93548C5.33929 1.31426 6.62647 0 8.21429 0H14.7857C16.3735 0 17.6607 1.31426 17.6607 2.93548V5.45161H21.7679C22.4484 5.45161 23 6.01487 23 6.70968C23 7.40449 22.4484 7.96774 21.7679 7.96774H20.9464V23.0645C20.9464 24.6857 19.6592 26 18.0714 26H4.92857C3.34075 26 2.05357 24.6857 2.05357 23.0645V7.96774H1.23214C0.551649 7.96774 0 7.40449 0 6.70968C0 6.01487 0.551649 5.45161 1.23214 5.45161H5.33929V2.93548ZM8.21429 2.51613C7.98745 2.51613 7.80357 2.70388 7.80357 2.93548V5.03226H15.1964V2.93548C15.1964 2.70388 15.0125 2.51613 14.7857 2.51613H8.21429ZM4.51786 8.3871V23.0645C4.51786 23.2961 4.70174 23.4839 4.92857 23.4839H7.39286L7.39286 8.3871H4.51786ZM13.1429 23.4839H9.85714L9.85714 8.3871H13.1429L13.1429 23.4839ZM15.6071 23.4839H18.0714C18.2983 23.4839 18.4821 23.2961 18.4821 23.0645V8.3871H15.6071V23.4839Z" fill="#989A9C"/>
</svg>
