<svg width="22" height="22" viewBox="0 0 22 22" fill="none" xmlns="http://www.w3.org/2000/svg">
<path d="M18.0505 18.049C19.5272 16.5723 17.5683 12.2193 13.6753 8.32625C9.78224 4.43321 5.42923 2.47436 3.95256 3.95103C2.47589 5.4277 4.43474 9.78071 8.32778 13.6737C12.2208 17.5668 16.5738 19.5256 18.0505 18.049Z" stroke="#E93C3C" stroke-width="2" stroke-linecap="round" stroke-linejoin="round"/>
<path d="M13.6753 13.6737C17.5683 9.78071 19.5272 5.4277 18.0505 3.95103C16.5738 2.47436 12.2208 4.43321 8.32778 8.32625C4.43474 12.2193 2.47589 16.5723 3.95256 18.049C5.42923 19.5256 9.78224 17.5668 13.6753 13.6737Z" stroke="#E93C3C" stroke-width="2" stroke-linecap="round" stroke-linejoin="round"/>
<path d="M11 12.0312C11.5695 12.0312 12.0312 11.5695 12.0312 11C12.0312 10.4305 11.5695 9.96875 11 9.96875C10.4305 9.96875 9.96875 10.4305 9.96875 11C9.96875 11.5695 10.4305 12.0312 11 12.0312Z" fill="#E93C3C"/>
</svg>
