<svg width="26" height="26" viewBox="0 0 26 26" fill="none" xmlns="http://www.w3.org/2000/svg">
    <path
        d="M7.61371 8.76099C8.78998 8.76099 9.74353 7.80743 9.74353 6.63116C9.74353 5.4549 8.78998 4.50134 7.61371 4.50134C6.43744 4.50134 5.48389 5.4549 5.48389 6.63116C5.48389 7.80743 6.43744 8.76099 7.61371 8.76099Z"
        fill="#ED2939" />
    <path
        d="M24.7213 4.80029H21.9569C21.6568 4.80029 21.4136 5.0436 21.4136 5.3436C21.4136 5.6436 21.6569 5.88691 21.9569 5.88691H24.7213C25.0214 5.88691 25.2646 5.6436 25.2646 5.3436C25.2646 5.0436 25.0214 4.80029 24.7213 4.80029Z"
        fill="#ED2939" />
    <path
        d="M24.2959 1.11514C24.0837 0.903028 23.7397 0.903028 23.5275 1.11514L21.5727 3.06991C21.3605 3.28207 21.3605 3.62611 21.5727 3.83831C21.785 4.05052 22.1289 4.05047 22.3411 3.83831L24.2959 1.88354C24.508 1.67138 24.508 1.32734 24.2959 1.11514Z"
        fill="#ED2939" />
    <path
        d="M4.05779 7.1972H1.29331C0.993211 7.1972 0.75 7.44051 0.75 7.74051C0.75 8.04056 0.99326 8.28382 1.29331 8.28382H4.05779C4.35789 8.28382 4.6011 8.04051 4.6011 7.74051C4.60115 7.44051 4.35784 7.1972 4.05779 7.1972Z"
        fill="#ED2939" />
    <path
        d="M4.44182 5.46685L2.48704 3.51208C2.27489 3.29997 1.93084 3.29997 1.71869 3.51208C1.50653 3.72423 1.50653 4.06828 1.71869 4.28048L3.67346 6.23526C3.88567 6.44741 4.22966 6.44736 4.44182 6.23526C4.65402 6.0231 4.65402 5.67906 4.44182 5.46685Z"
        fill="#ED2939" />
    <path
        d="M16.0454 16.4169V24.853C16.0454 25.4622 16.5393 25.956 17.1484 25.956C17.7576 25.956 18.2515 25.4622 18.2515 24.853V16.4169H16.0454Z"
        fill="#ED2939" />
    <path
        d="M20.915 14.5605C19.2925 15.2059 19.4811 15.1314 19.4267 15.1514C19.555 15.7949 19.2044 16.2563 18.729 16.3832V24.853C18.729 25.4621 19.2228 25.956 19.832 25.956C20.4412 25.956 20.935 25.4621 20.935 24.853C20.9349 24.7864 20.915 14.6271 20.915 14.5605Z"
        fill="#ED2939" />
    <path
        d="M18.6978 15.3827L18.6694 15.24C18.0962 15.1706 17.5777 14.7991 17.3493 14.225C17.0438 13.4574 17.3629 12.5964 18.0638 12.2026L17.7997 10.8779C17.7785 10.7713 17.6841 10.6938 17.5754 10.6938H14.7244C14.5798 10.6938 14.4719 10.8263 14.5001 10.9674L14.5742 11.3388C15.404 11.4366 16.019 12.1703 15.9604 13.0127C15.9222 13.5621 15.6065 14.0258 15.16 14.277L15.3982 15.4722C15.4194 15.5788 15.5138 15.6563 15.6225 15.6563H18.4735C18.6178 15.6563 18.726 15.5242 18.6978 15.3827Z"
        fill="#ED2939" />
    <path
        d="M23.1379 9.39234C23.132 8.19889 22.1562 7.228 20.9628 7.228C20.1665 7.228 17.4991 7.228 16.7145 7.228L14.7017 6.9927L15.7852 5.6909C16.11 5.30071 16.0569 4.72118 15.6667 4.39642C15.2765 4.07177 14.697 4.1247 14.3722 4.51493L12.2035 7.12067C11.9876 7.3799 11.9312 7.73654 12.0564 8.04977C12.1815 8.363 12.4681 8.58248 12.8032 8.62164L16.0463 9.00084V9.93335H17.5747C18.0449 9.93335 18.453 10.2681 18.545 10.7293L18.7788 11.9019L20.915 11.0521V9.39888C20.915 9.29268 21.0011 9.20655 21.1073 9.20655C21.2135 9.20655 21.2996 9.29268 21.2996 9.39893C21.2996 9.39986 21.2996 9.40074 21.2996 9.40167C21.3088 11.2129 21.3068 10.8271 21.311 11.6596L18.5232 12.7686C18.0516 12.9562 17.8213 13.4907 18.009 13.9624C18.1966 14.4342 18.7312 14.6643 19.2028 14.4767L22.573 13.1359C22.9244 12.9962 23.1543 12.6554 23.1524 12.2772C23.1495 11.7093 23.1407 9.95347 23.1379 9.39234Z"
        fill="#ED2939" />
    <path
        d="M18.5033 6.54033C19.7245 6.54033 20.7145 5.55031 20.7145 4.32906C20.7145 3.10782 19.7245 2.1178 18.5033 2.1178C17.282 2.1178 16.292 3.10782 16.292 4.32906C16.292 5.55031 17.282 6.54033 18.5033 6.54033Z"
        fill="#ED2939" />
    <path
        d="M14.4475 12.0533L11.3745 11.8395L8.0848 10.5293L9.67307 10.8258L11.2921 11.1085L13.7871 11.2821C13.753 11.1116 13.63 10.6965 13.9594 10.2951C14.148 10.0651 14.4269 9.93315 14.7243 9.93315H14.8773C14.6692 9.51621 14.1642 9.34282 13.7437 9.54658L11.4981 10.6345L9.60544 10.1978C9.44495 9.74258 9.01218 9.41577 8.50213 9.41577H6.33017C5.68349 9.41577 5.15923 9.93999 5.15923 10.5867C5.15923 11.8421 5.14062 22.094 5.14062 24.904C5.14062 25.4688 5.59848 25.9266 6.16323 25.9266C6.72797 25.9266 7.18583 25.4687 7.18583 24.904V16.7302H7.62733V24.904C7.62733 25.4688 8.08519 25.9266 8.64993 25.9266C9.21467 25.9266 9.67253 25.4687 9.67253 24.904L9.67292 13.5457L7.4538 12.1126L10.8673 13.472C10.9491 13.5047 11.0355 13.5244 11.1235 13.5304L14.329 13.7534C14.8024 13.7858 15.2059 13.4286 15.2383 12.9625C15.2711 12.493 14.9169 12.0859 14.4475 12.0533Z"
        fill="#ED2939" />
</svg>
