<svg width="86" height="84" viewBox="0 0 86 84" fill="none" xmlns="http://www.w3.org/2000/svg">
    <path
        d="M54.1158 19.5938H31.1462C30.6227 19.5945 30.1209 19.8022 29.7508 20.1714C29.3806 20.5406 29.1724 21.0411 29.1718 21.5632V72.4859L28.9085 72.566L23.2737 74.2873C23.0067 74.3685 22.7182 74.3407 22.4717 74.21C22.2252 74.0793 22.0407 73.8564 21.9588 73.5901L5.1978 18.9781C5.11623 18.7117 5.14404 18.4239 5.27509 18.1779C5.40615 17.932 5.62975 17.748 5.89673 17.6664L14.58 15.0143L39.7531 7.32826L48.4363 4.67611C48.5684 4.63554 48.7073 4.62136 48.8449 4.63439C48.9826 4.64742 49.1163 4.68739 49.2384 4.75203C49.3605 4.81666 49.4687 4.90468 49.5567 5.01106C49.6447 5.11744 49.7108 5.24008 49.7512 5.37197L54.0355 19.3312L54.1158 19.5938Z"
        fill="#F2F2F2" />
    <path
        d="M59.1281 19.3313L53.9645 2.50719C53.8786 2.22687 53.7382 1.96618 53.5512 1.74003C53.3643 1.51387 53.1345 1.32667 52.875 1.18914C52.6155 1.0516 52.3314 0.966415 52.0388 0.938456C51.7463 0.910497 51.4511 0.94031 51.1702 1.02619L38.962 4.75365L13.7903 12.441L1.5822 16.1697C1.01508 16.3434 0.540217 16.7345 0.261851 17.2571C-0.0165157 17.7797 -0.0756446 18.3911 0.0974451 18.9571L17.7456 76.4551C17.8862 76.912 18.1699 77.3119 18.5551 77.5962C18.9403 77.8804 19.4067 78.0341 19.8858 78.0345C20.1076 78.0346 20.3281 78.0014 20.54 77.9361L28.9086 75.3811L29.1719 75.2997V75.0253L28.9086 75.1053L20.4623 77.6853C19.9617 77.8375 19.4211 77.7855 18.9589 77.5406C18.4967 77.2956 18.1508 76.8779 17.997 76.3789L0.350217 18.8797C0.274019 18.6324 0.247461 18.3726 0.272065 18.1151C0.296669 17.8576 0.371949 17.6075 0.493598 17.3791C0.615248 17.1507 0.780877 16.9484 0.980998 16.7839C1.18112 16.6194 1.4118 16.4959 1.65984 16.4205L13.868 12.6917L39.0397 5.00574L51.2479 1.27696C51.436 1.21969 51.6316 1.19049 51.8283 1.19031C52.2504 1.19126 52.6612 1.32701 53.0003 1.57768C53.3395 1.82836 53.5893 2.18079 53.7132 2.58335L58.8531 19.3313L58.9347 19.5939H59.2085L59.1281 19.3313Z"
        fill="#3F3D56" />
    <path
        d="M16.1469 17.7093C15.8932 17.7092 15.6462 17.6279 15.4422 17.4775C15.2382 17.327 15.0879 17.1153 15.0134 16.8734L13.318 11.3496C13.2725 11.2012 13.2567 11.0454 13.2715 10.8909C13.2864 10.7364 13.3316 10.5864 13.4046 10.4493C13.4775 10.3123 13.5769 10.1909 13.6969 10.0922C13.8169 9.99344 13.9552 9.91925 14.104 9.87384L37.2618 2.80181C37.5622 2.71036 37.8867 2.74155 38.1641 2.88852C38.4415 3.03549 38.6491 3.28624 38.7413 3.58573L40.4367 9.1096C40.5283 9.40926 40.497 9.73294 40.3497 10.0096C40.2023 10.2863 39.951 10.4934 39.6508 10.5854L16.493 17.6575C16.3808 17.6918 16.2642 17.7093 16.1469 17.7093Z"
        fill="#ED2939" />
    <path
        d="M25.028 6.82946C26.4819 6.82946 27.6605 5.65381 27.6605 4.20356C27.6605 2.75332 26.4819 1.57767 25.028 1.57767C23.5741 1.57767 22.3955 2.75332 22.3955 4.20356C22.3955 5.65381 23.5741 6.82946 25.028 6.82946Z"
        fill="#ED2939" />
    <path
        d="M25.0278 5.86634C25.9484 5.86634 26.6948 5.12188 26.6948 4.20354C26.6948 3.2852 25.9484 2.54074 25.0278 2.54074C24.1072 2.54074 23.3608 3.2852 23.3608 4.20354C23.3608 5.12188 24.1072 5.86634 25.0278 5.86634Z"
        fill="white" />
    <path
        d="M79.3206 77.3636H34.8317C34.5351 77.3632 34.2507 77.2455 34.041 77.0363C33.8312 76.8271 33.7132 76.5434 33.7129 76.2476V23.0732C33.7132 22.7773 33.8312 22.4936 34.0409 22.2844C34.2507 22.0752 34.5351 21.9575 34.8317 21.9572H79.3206C79.6172 21.9575 79.9016 22.0752 80.1113 22.2844C80.321 22.4936 80.439 22.7773 80.4394 23.0732V76.2476C80.439 76.5434 80.321 76.8271 80.1113 77.0363C79.9016 77.2455 79.6172 77.3632 79.3206 77.3636Z"
        fill="#E6E6E6" />
    <path
        d="M58.8531 19.3312H31.1463C30.5531 19.3321 29.9845 19.5675 29.565 19.9859C29.1455 20.4043 28.9095 20.9715 28.9087 21.5632V75.1053L29.1719 75.0252V21.5632C29.1726 21.0411 29.3808 20.5406 29.7509 20.1714C30.121 19.8022 30.6229 19.5945 31.1463 19.5938H58.9348L58.8531 19.3312ZM83.0061 19.3312H31.1463C30.5531 19.3321 29.9845 19.5675 29.565 19.9859C29.1455 20.4043 28.9095 20.9715 28.9087 21.5632V81.6963C28.9095 82.288 29.1455 82.8552 29.565 83.2736C29.9845 83.692 30.5531 83.9274 31.1463 83.9283H83.0061C83.5993 83.9274 84.168 83.692 84.5874 83.2736C85.0069 82.8552 85.2429 82.288 85.2437 81.6963V21.5632C85.2429 20.9715 85.0069 20.4043 84.5874 19.9859C84.168 19.5675 83.5993 19.3321 83.0061 19.3312ZM84.9805 81.6963C84.9798 82.2184 84.7716 82.719 84.4015 83.0882C84.0314 83.4574 83.5296 83.6651 83.0061 83.6657H31.1463C30.6229 83.6651 30.121 83.4574 29.7509 83.0882C29.3808 82.719 29.1726 82.2184 29.1719 81.6963V21.5632C29.1726 21.0411 29.3808 20.5406 29.7509 20.1714C30.121 19.8022 30.6229 19.5945 31.1463 19.5938H83.0061C83.5296 19.5945 84.0314 19.8022 84.4015 20.1714C84.7716 20.5406 84.9798 21.0411 84.9805 21.5632V81.6963Z"
        fill="#3F3D56" />
    <path
        d="M69.1856 25.1082H44.9668C44.6528 25.1079 44.3517 24.9832 44.1296 24.7617C43.9075 24.5402 43.7826 24.2398 43.7822 23.9266V18.1496C43.7826 17.8363 43.9075 17.5359 44.1296 17.3144C44.3517 17.0929 44.6528 16.9683 44.9668 16.9679H69.1856C69.4997 16.9683 69.8008 17.0929 70.0229 17.3144C70.245 17.5359 70.3699 17.8363 70.3703 18.1496V23.9266C70.3699 24.2398 70.245 24.5402 70.0229 24.7617C69.8008 24.9832 69.4997 25.1079 69.1856 25.1082Z"
        fill="#ED2939" />
    <path
        d="M57.0758 17.3618C58.5297 17.3618 59.7083 16.1862 59.7083 14.7359C59.7083 13.2857 58.5297 12.11 57.0758 12.11C55.622 12.11 54.4434 13.2857 54.4434 14.7359C54.4434 16.1862 55.622 17.3618 57.0758 17.3618Z"
        fill="#ED2939" />
    <path
        d="M57.0761 16.3353C57.9616 16.3353 58.6795 15.6192 58.6795 14.7359C58.6795 13.8526 57.9616 13.1365 57.0761 13.1365C56.1905 13.1365 55.4727 13.8526 55.4727 14.7359C55.4727 15.6192 56.1905 16.3353 57.0761 16.3353Z"
        fill="white" />
</svg>
