<svg width="237" height="119" viewBox="0 0 237 119" fill="none" xmlns="http://www.w3.org/2000/svg">
<g clip-path="url(#clip0_33_711)">
<path d="M214.112 96.7925H33.9119C31.6083 96.79 29.3997 95.8773 27.7708 94.2549C26.1419 92.6324 25.2256 90.4326 25.223 88.1381V20.0317C25.2256 17.7373 26.1419 15.5375 27.7708 13.915C29.3998 12.2926 31.6083 11.38 33.9119 11.3773H214.112C216.416 11.38 218.625 12.2926 220.253 13.915C221.882 15.5375 222.799 17.7373 222.801 20.0317V88.1381C222.799 90.4326 221.882 92.6324 220.254 94.2549C218.625 95.8773 216.416 96.79 214.112 96.7925Z" fill="white"/>
<path d="M214.112 96.7925H33.9119C31.6083 96.79 29.3997 95.8773 27.7708 94.2549C26.1419 92.6324 25.2256 90.4326 25.223 88.1381V20.0317C25.2256 17.7373 26.1419 15.5375 27.7708 13.915C29.3998 12.2926 31.6083 11.38 33.9119 11.3773H214.112C216.416 11.38 218.625 12.2926 220.253 13.915C221.882 15.5375 222.799 17.7373 222.801 20.0317V88.1381C222.799 90.4326 221.882 92.6324 220.254 94.2549C218.625 95.8773 216.416 96.79 214.112 96.7925ZM33.9119 12.1299C31.8079 12.1299 29.79 12.9624 28.3022 14.4443C26.8144 15.9262 25.9786 17.936 25.9786 20.0317V88.1381C25.9786 89.1758 26.1838 90.2033 26.5825 91.162C26.9812 92.1207 27.5655 92.9918 28.3022 93.7256C29.0389 94.4593 29.9135 95.0414 30.876 95.4385C31.8385 95.8356 32.8701 96.04 33.9119 96.04H214.112C215.154 96.04 216.186 95.8356 217.148 95.4385C218.111 95.0414 218.985 94.4593 219.722 93.7256C220.459 92.9918 221.043 92.1207 221.442 91.162C221.841 90.2033 222.046 89.1758 222.046 88.1381V62.4584C222.046 49.1104 216.722 36.3092 207.246 26.8708C197.77 17.4323 184.918 12.1299 171.517 12.1299H33.9119Z" fill="#E6E6E6"/>
<path d="M19.6536 111.291C19.7273 110.787 19.1968 110.292 18.4687 110.187C17.7406 110.081 17.0906 110.405 17.0169 110.909C16.9432 111.414 17.4737 111.908 18.2018 112.014C18.93 112.119 19.5799 111.796 19.6536 111.291Z" fill="white"/>
<path d="M28.3226 110.449C28.3963 109.944 27.8658 109.45 27.1377 109.344C26.4096 109.239 25.7596 109.562 25.6859 110.067C25.6122 110.571 26.1427 111.066 26.8708 111.171C27.5989 111.277 28.2489 110.953 28.3226 110.449Z" fill="#3F3D56"/>
<path d="M17.2799 104.301C17.3536 103.797 16.823 103.302 16.0949 103.196C15.3668 103.091 14.7168 103.414 14.6431 103.919C14.5694 104.423 15.1 104.918 15.8281 105.023C16.5562 105.129 17.2062 104.806 17.2799 104.301Z" fill="#FF6584"/>
<path d="M13.513 101.438C13.5165 100.975 13.2571 100.597 12.9336 100.595C12.6102 100.592 12.3451 100.966 12.3416 101.429C12.3381 101.892 12.5974 102.269 12.9209 102.272C13.2444 102.274 13.5095 101.901 13.513 101.438Z" fill="#E6E6E6"/>
<path d="M12.2356 96.1044C12.2391 95.6413 11.9797 95.2639 11.6562 95.2614C11.3328 95.259 11.0677 95.6325 11.0642 96.0956C11.0607 96.5588 11.32 96.9362 11.6435 96.9386C11.967 96.9411 12.2321 96.5676 12.2356 96.1044Z" fill="#3F3D56"/>
<path d="M22.1692 105.491C22.1727 105.027 21.9134 104.65 21.5899 104.648C21.2664 104.645 21.0013 105.019 20.9978 105.482C20.9943 105.945 21.2537 106.322 21.5772 106.325C21.9006 106.327 22.1657 105.954 22.1692 105.491Z" fill="#E6E6E6"/>
<path d="M17.98 107.574C17.9835 107.111 17.7242 106.733 17.4007 106.731C17.0772 106.728 16.8121 107.102 16.8086 107.565C16.8051 108.028 17.0645 108.406 17.3879 108.408C17.7114 108.411 17.9765 108.037 17.98 107.574Z" fill="#FF6584"/>
<path d="M23.8115 111.424C23.815 110.961 23.5556 110.584 23.2322 110.581C22.9087 110.579 22.6436 110.952 22.6401 111.416C22.6366 111.879 22.896 112.256 23.2194 112.259C23.5429 112.261 23.808 111.888 23.8115 111.424Z" fill="#3F3D56"/>
<path d="M229.086 2.52932C229.246 1.89939 228.639 1.20271 227.73 0.973226C226.821 0.743744 225.954 1.06836 225.794 1.6983C225.633 2.32823 226.24 3.02493 227.149 3.25441C228.059 3.48389 228.926 3.15926 229.086 2.52932Z" fill="white"/>
<path d="M217.983 2.45806C218.144 1.82813 217.537 1.13143 216.627 0.901945C215.718 0.672463 214.851 0.9971 214.691 1.62703C214.531 2.25697 215.138 2.95365 216.047 3.18313C216.956 3.41261 217.823 3.08799 217.983 2.45806Z" fill="#3F3D56"/>
<path d="M231.169 11.7039C231.33 11.074 230.722 10.3773 229.813 10.1478C228.904 9.9183 228.037 10.2429 227.877 10.8729C227.717 11.5028 228.324 12.1995 229.233 12.429C230.142 12.6585 231.009 12.3338 231.169 11.7039Z" fill="#FF6584"/>
<path d="M233.757 15.1634C233.823 14.5766 233.544 14.064 233.135 14.0184C232.725 13.9728 232.339 14.4115 232.273 14.9982C232.208 15.5849 232.486 16.0976 232.896 16.1432C233.306 16.1888 233.692 15.7501 233.757 15.1634Z" fill="#E6E6E6"/>
<path d="M234.672 22.0918C234.738 21.505 234.459 20.9924 234.049 20.9468C233.639 20.9012 233.254 21.3399 233.188 21.9266C233.122 22.5133 233.401 23.026 233.811 23.0716C234.22 23.1172 234.606 22.6785 234.672 22.0918Z" fill="#3F3D56"/>
<path d="M223.32 8.88716C223.385 8.30043 223.107 7.78781 222.697 7.74221C222.287 7.6966 221.901 8.13527 221.836 8.722C221.77 9.30874 222.049 9.82135 222.458 9.86696C222.868 9.91256 223.254 9.4739 223.32 8.88716Z" fill="#E6E6E6"/>
<path d="M228.907 6.79651C228.973 6.20978 228.694 5.69716 228.284 5.65155C227.874 5.60595 227.489 6.04462 227.423 6.63135C227.357 7.21808 227.636 7.7307 228.046 7.77631C228.455 7.82191 228.841 7.38324 228.907 6.79651Z" fill="#FF6584"/>
<path d="M222.024 1.14821C222.089 0.561474 221.811 0.0488619 221.401 0.00325458C220.991 -0.0423527 220.605 0.396316 220.54 0.98305C220.474 1.56978 220.753 2.0824 221.162 2.12801C221.572 2.17361 221.958 1.73494 222.024 1.14821Z" fill="#3F3D56"/>
<path d="M97.2997 52.6989C97.3096 59.5148 94.7817 66.0921 90.205 71.1591V71.1629C89.5579 71.8795 88.8745 72.5627 88.1574 73.2099C87.4237 73.8718 86.6544 74.4936 85.853 75.0725C85.2939 75.4788 84.7197 75.8626 84.1303 76.2239C83.4314 76.6566 82.7124 77.0567 81.9732 77.4242C81.4254 77.6989 80.8663 77.9548 80.2959 78.1918C76.8908 79.6171 73.2341 80.3502 69.5405 80.3479C67.4545 80.3502 65.3749 80.1179 63.3412 79.6555C62.4007 79.4425 61.4725 79.1787 60.5607 78.8653C60.2094 78.7487 59.8581 78.6208 59.5105 78.4853C57.4031 77.6739 55.4046 76.606 53.5605 75.3057C49.6627 72.5723 46.5372 68.8851 44.4854 64.5994C42.4335 60.3137 41.5242 55.5739 41.8452 50.8366C42.1663 46.0993 43.7067 41.5242 46.3182 37.552C48.9297 33.5798 52.5242 30.3443 56.7554 28.1574C60.9867 25.9705 65.7121 24.9057 70.4764 25.0657C75.2407 25.2257 79.8833 26.6051 83.9571 29.0709C88.0308 31.5368 91.3984 35.006 93.7353 39.1444C96.0722 43.2828 97.2998 47.9509 97.2997 52.6989Z" fill="#F2F2F2"/>
<path d="M180.381 32.146H132.403C132.003 32.1454 131.619 31.9866 131.336 31.7044C131.053 31.4222 130.894 31.0397 130.894 30.6409C130.894 30.2421 131.053 29.8596 131.336 29.5774C131.619 29.2952 132.003 29.1364 132.403 29.1358H180.381C180.782 29.1358 181.166 29.2943 181.449 29.5766C181.733 29.8589 181.892 30.2417 181.892 30.6409C181.892 31.0401 181.733 31.4229 181.449 31.7052C181.166 31.9874 180.782 32.146 180.381 32.146Z" fill="#ED2939"/>
<path d="M180.381 52.465H132.403C132.003 52.4644 131.619 52.3056 131.336 52.0234C131.053 51.7412 130.894 51.3587 130.894 50.9599C130.894 50.5611 131.053 50.1786 131.336 49.8964C131.619 49.6142 132.003 49.4554 132.403 49.4548H180.381C180.781 49.4554 181.165 49.6142 181.448 49.8964C181.731 50.1786 181.89 50.5611 181.89 50.9599C181.89 51.3587 181.731 51.7412 181.448 52.0234C181.165 52.3056 180.781 52.4644 180.381 52.465Z" fill="#E6E6E6"/>
<path d="M180.381 72.7841H132.403C132.003 72.7835 131.619 72.6246 131.336 72.3424C131.053 72.0602 130.894 71.6778 130.894 71.279C130.894 70.8802 131.053 70.4977 131.336 70.2155C131.619 69.9333 132.003 69.7744 132.403 69.7738H180.381C180.782 69.7738 181.166 69.9324 181.449 70.2147C181.733 70.4969 181.892 70.8798 181.892 71.279C181.892 71.6781 181.733 72.061 181.449 72.3432C181.166 72.6255 180.782 72.7841 180.381 72.7841Z" fill="#E6E6E6"/>
<path d="M60.4335 117.686C55.0171 110.51 51.8865 102.486 51.784 93.3374C51.6095 92.8444 51.6384 92.3026 51.8645 91.8308C52.0906 91.359 52.4953 90.9959 52.9899 90.8209L71.4517 84.3146C71.9466 84.1408 72.4906 84.1696 72.9643 84.3948C73.4379 84.62 73.8026 85.0231 73.9782 85.5157L82.6277 109.864C82.8022 110.357 82.7732 110.899 82.5471 111.371C82.3211 111.843 81.9164 112.206 81.4218 112.381L62.96 118.887C62.465 119.061 61.921 119.032 61.4474 118.807C60.9737 118.582 60.6091 118.178 60.4335 117.686Z" fill="#E6E6E6"/>
<path d="M59.2371 109.833C55.9795 106.552 54.5851 100.701 53.6764 94.1791C53.513 93.7174 53.5401 93.21 53.7518 92.7682C53.9635 92.3263 54.3426 91.9862 54.8058 91.8224L70.6721 86.2307C71.1357 86.0679 71.6452 86.0949 72.0888 86.3058C72.5324 86.5167 72.8739 86.8942 73.0384 87.3556L80.7352 109.022C80.8987 109.484 80.8715 109.992 80.6598 110.433C80.448 110.875 80.069 111.215 79.6058 111.379L69.7769 114.843C67.7121 115.568 65.4427 115.448 63.4668 114.509C61.4909 113.569 59.9697 111.888 59.2371 109.833Z" fill="white"/>
<path d="M73.2507 99.0276L60.8913 103.422C60.7939 103.456 60.6906 103.472 60.5873 103.466C60.4841 103.461 60.3828 103.436 60.2894 103.392C60.1959 103.348 60.1121 103.286 60.0427 103.209C59.9734 103.133 59.9198 103.044 59.885 102.947C59.8502 102.85 59.835 102.747 59.8402 102.644C59.8453 102.541 59.8707 102.44 59.915 102.347C59.9593 102.254 60.0216 102.171 60.0982 102.102C60.1749 102.033 60.2645 101.979 60.3619 101.945L72.7213 97.5503C72.918 97.4804 73.1345 97.4911 73.3232 97.5802C73.5119 97.6693 73.6574 97.8294 73.7276 98.0253C73.7978 98.2212 73.787 98.4368 73.6976 98.6248C73.6081 98.8128 73.4474 98.9576 73.2507 99.0276Z" fill="#ED2939"/>
<path d="M62.1587 98.4044L59.4396 99.3711C59.3422 99.4058 59.2389 99.4211 59.1355 99.4161C59.0322 99.411 58.9309 99.3857 58.8373 99.3416C58.7438 99.2975 58.6599 99.2355 58.5905 99.1591C58.521 99.0827 58.4674 98.9935 58.4326 98.8964C58.3978 98.7993 58.3826 98.6964 58.3878 98.5935C58.393 98.4905 58.4184 98.3896 58.4628 98.2965C58.5072 98.2034 58.5695 98.1199 58.6463 98.0508C58.7231 97.9817 58.8127 97.9284 58.9102 97.8938L61.6293 96.9271C61.7267 96.8924 61.8301 96.8771 61.9334 96.8822C62.0367 96.8872 62.1381 96.9125 62.2316 96.9566C62.3251 97.0007 62.409 97.0627 62.4785 97.1391C62.5479 97.2155 62.6016 97.3048 62.6363 97.4018C62.6711 97.4989 62.6864 97.6018 62.6812 97.7048C62.676 97.8077 62.6505 97.9086 62.6061 98.0017C62.5618 98.0948 62.4994 98.1783 62.4227 98.2474C62.3459 98.3165 62.2562 98.3698 62.1587 98.4044Z" fill="#ED2939"/>
<path d="M75.5781 105.522L63.2187 109.916C63.0221 109.986 62.8057 109.975 62.6172 109.886C62.4287 109.797 62.2833 109.637 62.2132 109.441C62.143 109.245 62.1538 109.03 62.243 108.842C62.3323 108.654 62.4928 108.509 62.6893 108.439L75.0488 104.045C75.2454 103.975 75.4617 103.986 75.6503 104.075C75.8388 104.164 75.9841 104.324 76.0543 104.52C76.1244 104.716 76.1137 104.931 76.0244 105.119C75.9351 105.307 75.7746 105.452 75.5781 105.522Z" fill="#ED2939"/>
<path d="M74.4145 102.275L62.055 106.669C61.8584 106.739 61.6418 106.728 61.4531 106.639C61.2644 106.55 61.119 106.39 61.0488 106.194C60.9786 105.998 60.9894 105.782 61.0788 105.594C61.1682 105.406 61.3289 105.262 61.5256 105.192L73.8851 100.798C73.9825 100.763 74.0858 100.747 74.1892 100.753C74.2925 100.758 74.3938 100.783 74.4874 100.827C74.5809 100.871 74.6648 100.933 74.7342 101.009C74.8037 101.086 74.8573 101.175 74.8921 101.272C74.9269 101.369 74.9421 101.472 74.9369 101.575C74.9318 101.678 74.9063 101.779 74.8619 101.872C74.8175 101.965 74.7552 102.049 74.6784 102.118C74.6017 102.187 74.512 102.24 74.4145 102.275Z" fill="#ED2939"/>
<path d="M63.1914 40.19C63.5939 43.4244 65.844 46.0913 69.1162 46.0913C70.6875 46.0913 72.1945 45.4695 73.3056 44.3628C74.4167 43.2561 75.0409 41.7551 75.0409 40.19C75.0409 36.9309 72.3743 34.5901 69.1162 34.2888C65.6591 33.9691 62.6747 36.0375 63.1914 40.19Z" fill="#2F2E41"/>
<path d="M74.2741 79.9453C70.6462 80.5665 66.9308 80.468 63.3412 79.6555C65.045 78.7186 70.213 79.2943 74.2741 79.9453Z" fill="#2F2E41"/>
<path d="M51.2142 90.3253L54.0602 83.4748L56.3025 84.7155L54.9483 91.6842C55.084 92.1257 55.0933 92.5961 54.9752 93.0426C54.8571 93.4891 54.6163 93.8939 54.2799 94.2115C53.9435 94.5291 53.5248 94.747 53.0709 94.8406C52.617 94.9342 52.1459 94.8999 51.7105 94.7414C51.2751 94.583 50.8927 94.3067 50.6064 93.9437C50.32 93.5807 50.1409 93.1452 50.0894 92.6864C50.0378 92.2276 50.1158 91.7635 50.3145 91.3464C50.5132 90.9293 50.8248 90.5757 51.2142 90.3253Z" fill="#FFB6B6"/>
<path d="M80.6548 71.7875V71.7913C80.5528 74.1769 80.413 76.4459 80.2959 78.1918C76.8908 79.6171 73.2341 80.3502 69.5406 80.3479C67.4545 80.3502 65.3749 80.1179 63.3412 79.6555C62.4007 79.4425 61.4725 79.1787 60.5607 78.8653C60.6877 78.7838 60.8249 78.7192 60.9687 78.6735C62.3287 78.2144 60.9838 77.7967 60.9952 77.3602C61.0367 75.7648 61.4787 73.8496 62.0492 72.0133L59.5105 78.4853L58.1883 81.8492C58.1883 81.8492 58.2336 84.7541 57.3949 83.8661C56.5525 82.9781 56.6129 85.8528 56.6129 85.8528C56.3511 86.0387 56.1257 86.2708 55.948 86.5377C55.8733 86.6578 55.8451 86.8009 55.8687 86.9403V86.944C55.9067 87.0535 55.9814 87.1465 56.0803 87.2074C56.6507 87.5912 55.8309 88.6072 55.4683 89.0098C55.37 89.1189 55.3058 89.1829 55.3058 89.1829L51.8189 88.9345V88.8668C51.834 88.4567 51.9285 86.2968 52.4687 85.7813C53.0618 85.2132 52.7709 84.3139 52.7709 84.3139C52.7709 84.3139 54.3198 82.948 53.2809 81.838C52.8654 81.3902 53.0505 78.7374 53.5605 75.3058C54.6749 67.735 57.3458 56.3714 58.5018 56.5332C58.74 55.3806 59.2933 54.316 60.1006 53.4568C60.9079 52.5976 61.9378 51.9772 63.0767 51.6642L66.8432 50.6332L67.5156 47.9879H72.8196L73.7414 49.7263L77.6061 51.4648L77.6552 51.4873L77.7761 51.54L77.8214 51.683C77.8214 51.683 77.8176 51.6868 77.8214 51.6868L79.971 58.4108C80.9381 59.5171 80.9003 65.9816 80.6548 71.7875Z" fill="#ED2939"/>
<path d="M89.6867 85.3369L86.0951 78.8433L88.4688 77.8748L93.0851 83.2822C93.516 83.4526 93.8905 83.7393 94.1667 84.1101C94.4429 84.4809 94.6097 84.9211 94.6485 85.3811C94.6873 85.8412 94.5965 86.3029 94.3863 86.7144C94.176 87.1259 93.8547 87.4708 93.4585 87.7104C93.0622 87.95 92.6068 88.0747 92.1432 88.0706C91.6797 88.0664 91.2265 87.9336 90.8347 87.687C90.4428 87.4404 90.1277 87.0898 89.9249 86.6746C89.7221 86.2595 89.6396 85.7962 89.6867 85.3369Z" fill="#FFB6B6"/>
<path d="M77.6068 51.4129C78.2456 52.5563 84.0883 55.4968 83.0758 58.449C83.0758 58.449 88.5647 75.5535 89.2785 75.4419C89.9923 75.3303 90.6889 77.097 90.6889 77.097C90.6889 77.097 90.5375 78.2502 90.9827 77.771C91.4279 77.2918 91.3214 78.5479 91.3214 78.5479C91.3214 78.5479 91.108 79.6566 91.6733 79.3551C92.2386 79.0537 91.4954 81.1754 91.4954 81.1754L88.0983 82.7686L87.4528 81.8116C87.4528 81.8116 86.0734 81.55 86.7224 81.3427C87.3715 81.1354 86.1121 80.4378 86.1121 80.4378C86.1121 80.4378 84.7945 79.5459 84.9781 78.0688C85.1617 76.5917 81.5589 73.6879 81.5589 73.6879C79.0822 68.8174 77.7273 63.8168 77.7321 58.6586L77.6068 51.4129Z" fill="#ED2939"/>
<path d="M69.7711 46.4417C72.6727 46.4417 75.0249 44.0988 75.0249 41.2087C75.0249 38.3186 72.6727 35.9758 69.7711 35.9758C66.8695 35.9758 64.5173 38.3186 64.5173 41.2087C64.5173 44.0988 66.8695 46.4417 69.7711 46.4417Z" fill="#FFB6B6"/>
<path d="M64.3308 41.7788C64.4971 42.9159 65.4702 44.5025 65.2423 44.5025C65.0144 44.5025 63.3942 39.8148 65.0144 39.5091C66.1896 39.2874 66.4523 39.4819 67.5507 39.0075L67.3957 39.1528C68.1226 39.6794 69.1344 39.3548 69.9639 39.0121C70.7956 38.6716 71.8051 38.347 72.5343 38.8713C72.9923 39.2004 73.186 39.7724 73.4709 40.2581C73.7557 40.7461 74.2821 41.2069 74.8244 41.0571C75.0358 40.9757 75.2158 40.8298 75.3386 40.6401C75.4615 40.4505 75.5208 40.227 75.5081 40.0016C75.5058 39.5522 74.9183 39.1247 75.1161 38.7215C75.7025 37.5267 75.1752 36.7122 73.897 36.15C73.4321 36.0796 72.9673 36.0077 72.5024 35.9343C72.746 35.5983 73.0413 35.3026 73.3774 35.0582C73.2354 34.6956 72.9899 34.3823 72.671 34.1572C72.2771 33.9748 71.8382 33.9117 71.4086 33.9756C70.447 34.0255 69.4861 34.0754 68.526 34.1254C67.8109 34.1127 67.1012 34.2503 66.4432 34.5294C65.6502 34.9357 65.1306 35.7278 64.7524 36.5335C63.9047 38.3448 64.0391 39.8019 64.3308 41.7788Z" fill="#2F2E41"/>
<path d="M195.756 38.3465H116.745C116.658 38.3465 116.575 38.3121 116.513 38.2508C116.452 38.1896 116.417 38.1065 116.417 38.0198C116.417 37.9331 116.452 37.85 116.513 37.7888C116.575 37.7275 116.658 37.6931 116.745 37.6931H195.756C195.843 37.6931 195.926 37.7275 195.988 37.7888C196.049 37.85 196.084 37.9331 196.084 38.0198C196.084 38.1065 196.049 38.1896 195.988 38.2508C195.926 38.3121 195.843 38.3465 195.756 38.3465Z" fill="#E6E6E6"/>
<path d="M195.756 58.6048H116.745C116.658 58.6048 116.575 58.5704 116.513 58.5091C116.452 58.4479 116.417 58.3647 116.417 58.2781C116.417 58.1914 116.452 58.1083 116.513 58.0471C116.575 57.9858 116.658 57.9513 116.745 57.9513H195.756C195.843 57.9513 195.926 57.9858 195.988 58.0471C196.049 58.1083 196.084 58.1914 196.084 58.2781C196.084 58.3647 196.049 58.4479 195.988 58.5091C195.926 58.5704 195.843 58.6048 195.756 58.6048Z" fill="#E6E6E6"/>
<path d="M195.756 78.863H116.745C116.658 78.863 116.575 78.8286 116.513 78.7673C116.452 78.706 116.417 78.6229 116.417 78.5362C116.417 78.4496 116.452 78.3665 116.513 78.3052C116.575 78.2439 116.658 78.2095 116.745 78.2095H195.756C195.843 78.2095 195.926 78.2439 195.988 78.3052C196.049 78.3665 196.084 78.4496 196.084 78.5362C196.084 78.6229 196.049 78.706 195.988 78.7673C195.926 78.8286 195.843 78.863 195.756 78.863Z" fill="#E6E6E6"/>
<path d="M207.516 77.5677C204.624 77.5677 201.826 76.5388 199.628 74.6664C198.895 74.0411 198.113 72.9542 197.306 71.4359C196.79 70.4579 196.502 69.3772 196.461 68.2734C196.42 67.1696 196.628 66.0708 197.07 65.0578C196.644 65.4894 196.173 65.8744 195.665 66.2061L195.408 66.3764L195.393 66.0695C195.383 65.8698 195.378 65.6709 195.378 65.4782C195.378 64.3423 196.241 63.1898 195.843 62.1399C194.166 57.715 188.849 53.3175 196.556 46.4693C197.269 45.8358 196.316 44.5692 196.316 43.6107C196.316 34.2175 209.645 17.9668 213.423 26.5755C218.082 37.1922 226.108 36.0566 229.664 38.2495L229.715 38.4046L229.563 38.4659C228.785 38.7917 227.965 39.0088 227.128 39.1112C228.021 39.2926 228.932 39.3687 229.844 39.3378L229.985 39.3329L230.019 39.4696C230.358 40.8241 230.529 42.2148 230.529 43.6107L230.529 43.7616C230.525 44.8219 230.747 45.8709 231.178 46.8403C231.609 47.8097 232.241 48.6777 233.031 49.3877C234.28 50.5218 235.278 51.9025 235.961 53.442C236.644 54.9814 236.998 56.6458 237 58.329C237 60.3203 235.641 62.9343 234.501 64.7765C234.212 65.2458 233.821 65.6438 233.355 65.9407C232.89 66.2376 232.363 66.4256 231.814 66.4908C231.294 66.5561 230.767 66.5068 230.268 66.3464C229.769 66.186 229.312 65.9184 228.929 65.5625C229.469 66.6431 230.172 67.6346 231.014 68.5023L231.169 68.662L230.976 68.774C229.121 69.8519 227.011 70.4194 224.862 70.4186L224.737 70.4183C223.161 70.4021 221.599 70.6992 220.14 71.2921C218.682 71.885 217.357 72.7619 216.243 73.8713C215.109 75.0351 213.752 75.9615 212.254 76.5963C210.755 77.231 209.145 77.5613 207.516 77.5677Z" fill="#00F400"/>
<path d="M203.34 96.7132C203.288 96.7132 203.237 96.6942 203.197 96.6599C203.158 96.6256 203.132 96.5782 203.124 96.5264C202.554 91.4565 202.519 86.3409 203.023 81.2639C203.776 73.2548 206.195 61.7188 213.443 52.2445C213.461 52.2218 213.482 52.2027 213.507 52.1884C213.532 52.174 213.559 52.1647 213.588 52.1608C213.616 52.157 213.645 52.1588 213.673 52.1661C213.701 52.1734 213.727 52.1861 213.749 52.2034C213.772 52.2207 213.791 52.2423 213.806 52.267C213.82 52.2917 213.83 52.3189 213.833 52.3472C213.837 52.3755 213.835 52.4043 213.828 52.4319C213.821 52.4595 213.808 52.4854 213.791 52.5081C206.605 61.9006 204.205 73.3519 203.457 81.3045C202.957 86.3475 202.99 91.429 203.557 96.4652C203.561 96.496 203.559 96.5274 203.55 96.5573C203.541 96.5872 203.526 96.6148 203.505 96.6383C203.485 96.6618 203.459 96.6807 203.431 96.6936C203.402 96.7065 203.371 96.7132 203.34 96.7132Z" fill="#3F3D56"/>
<path d="M209.255 65.6085C209.209 65.6085 209.164 65.594 209.127 65.567C209.089 65.54 209.061 65.502 209.047 65.4583C209.033 65.4147 209.033 65.3676 209.047 65.3239C209.061 65.2802 209.089 65.2422 209.126 65.2152C211.192 63.8228 213.423 62.6916 215.768 61.8476C219.433 60.5113 225.005 59.3 230.741 61.1185C230.769 61.1271 230.794 61.1411 230.816 61.1595C230.838 61.1779 230.856 61.2004 230.869 61.2258C230.882 61.2511 230.89 61.2788 230.893 61.3072C230.895 61.3357 230.892 61.3643 230.883 61.3915C230.874 61.4187 230.86 61.444 230.842 61.4658C230.823 61.4876 230.801 61.5056 230.775 61.5187C230.75 61.5318 230.722 61.5398 230.694 61.5422C230.665 61.5446 230.636 61.5414 230.609 61.5328C224.99 59.7517 219.519 60.943 215.918 62.2559C213.611 63.0855 211.415 64.1977 209.383 65.5669C209.346 65.5939 209.301 65.6085 209.255 65.6085Z" fill="#3F3D56"/>
<path d="M199.264 40.8246C199.261 40.7788 199.272 40.7331 199.297 40.6941C199.321 40.6551 199.357 40.6248 199.4 40.6074C199.443 40.5901 199.49 40.5867 199.534 40.5977C199.579 40.6087 199.619 40.6335 199.649 40.6687C201.192 42.6201 202.485 44.755 203.5 47.0243C205.102 50.5685 206.716 56.0169 205.308 61.8468C205.301 61.8746 205.289 61.9008 205.272 61.924C205.256 61.9472 205.234 61.9668 205.21 61.9818C205.185 61.9967 205.158 62.0068 205.13 62.0112C205.101 62.0157 205.073 62.0146 205.045 62.0079C205.017 62.0012 204.99 61.9891 204.967 61.9723C204.944 61.9554 204.924 61.9342 204.909 61.9098C204.894 61.8854 204.884 61.8582 204.88 61.83C204.876 61.8017 204.877 61.7729 204.884 61.7451C206.262 56.0347 204.675 50.6851 203.101 47.2029C202.105 44.97 200.833 42.8692 199.315 40.949C199.286 40.9139 199.268 40.8704 199.264 40.8246Z" fill="#3F3D56"/>
<path d="M20.7571 73.2181C19.6432 72.1087 18.3182 71.2318 16.8597 70.6389C15.4013 70.046 13.8387 69.7489 12.2635 69.7651L12.1377 69.7654C9.9894 69.7663 7.87946 69.1987 6.02364 68.1209L5.83054 68.0088L5.98607 67.8492C6.82813 66.9814 7.53125 65.9899 8.0708 64.9094C7.6876 65.2652 7.23056 65.5328 6.73202 65.6932C6.23349 65.8536 5.70564 65.9029 5.18585 65.8376C4.63708 65.7725 4.11025 65.5844 3.64488 65.2875C3.1795 64.9906 2.78766 64.5926 2.49875 64.1233C1.35882 62.2811 0 59.6672 0 57.6758C0.00177402 55.9926 0.355605 54.3283 1.03895 52.7888C1.72229 51.2494 2.72014 49.8686 3.96891 48.7346C4.75949 48.0246 5.39096 47.1566 5.82215 46.1872C6.25334 45.2178 6.47456 44.1687 6.47141 43.1085L6.47078 42.9576C6.47056 41.5617 6.64183 40.171 6.98075 38.8165L7.01516 38.6797L7.15645 38.6846C8.06756 38.7155 8.97915 38.6394 9.8724 38.458C9.03453 38.3556 8.21487 38.1385 7.43666 37.8127L7.28467 37.7515L7.33624 37.5963C10.892 35.4035 18.9185 36.5391 23.5773 25.9224C27.3549 17.3137 40.6837 33.5643 40.6837 42.9576C40.6837 43.916 39.7314 45.1826 40.4443 45.8161C48.151 52.6643 42.8335 57.0618 41.157 61.4867C40.7592 62.5366 41.6217 63.6892 41.6217 64.825C41.6217 65.0177 41.6168 65.2167 41.607 65.4163L41.5922 65.7232L41.3352 65.5529C40.8269 65.2212 40.3557 64.8362 39.9297 64.4046C40.3716 65.4176 40.5799 66.5165 40.5392 67.6203C40.4985 68.724 40.2098 69.8047 39.6944 70.7827C38.8868 72.301 38.1054 73.388 37.3721 74.0132C35.0229 76.0155 31.9945 77.0484 28.9061 76.9006C25.8178 76.7528 22.9028 75.4355 20.7571 73.2181Z" fill="#00F400"/>
<path d="M33.6598 96.0601C33.7123 96.06 33.763 96.0411 33.8027 96.0068C33.8423 95.9725 33.8682 95.9251 33.8756 95.8733C34.4464 90.8034 34.4805 85.6878 33.9774 80.6108C33.224 72.6016 30.8045 61.0657 23.5566 51.5914C23.5392 51.5687 23.5175 51.5496 23.4927 51.5352C23.468 51.5209 23.4406 51.5115 23.4122 51.5077C23.3838 51.5039 23.3549 51.5056 23.3272 51.5129C23.2995 51.5202 23.2735 51.5329 23.2507 51.5502C23.2279 51.5675 23.2087 51.5891 23.1943 51.6138C23.1799 51.6385 23.1705 51.6658 23.1666 51.694C23.1628 51.7223 23.1646 51.7511 23.1719 51.7787C23.1792 51.8063 23.192 51.8322 23.2093 51.8549C30.3947 61.2474 32.7947 72.6987 33.5428 80.6513C34.0432 85.6944 34.0099 90.7759 33.4434 95.812C33.439 95.8428 33.4414 95.8743 33.4502 95.9041C33.4591 95.934 33.4743 95.9617 33.4948 95.9852C33.5153 96.0087 33.5407 96.0275 33.5691 96.0405C33.5976 96.0534 33.6285 96.0601 33.6598 96.0601Z" fill="#3F3D56"/>
<path d="M27.745 64.9553C27.7911 64.9553 27.8361 64.9408 27.8734 64.9139C27.9107 64.8869 27.9385 64.8488 27.9528 64.8052C27.967 64.7615 27.967 64.7145 27.9528 64.6708C27.9386 64.6271 27.9108 64.589 27.8735 64.562C25.8083 63.1696 23.5773 62.0384 21.2318 61.1944C17.5674 59.8582 11.9952 58.6468 6.25864 60.4653C6.23133 60.474 6.20599 60.4879 6.18408 60.5063C6.16218 60.5247 6.14413 60.5472 6.13096 60.5726C6.1178 60.598 6.10977 60.6256 6.10735 60.6541C6.10493 60.6825 6.10816 60.7112 6.11685 60.7384C6.12554 60.7656 6.13952 60.7908 6.158 60.8126C6.17649 60.8345 6.19911 60.8524 6.22457 60.8656C6.25003 60.8787 6.27783 60.8867 6.30639 60.8891C6.33495 60.8915 6.3637 60.8883 6.39102 60.8796C12.01 59.0985 17.4812 60.2899 21.0817 61.6028C23.3894 62.4323 25.5847 63.5445 27.6169 64.9138C27.6541 64.9408 27.699 64.9553 27.745 64.9553Z" fill="#3F3D56"/>
<path d="M37.7356 40.1715C37.7389 40.1257 37.7277 40.08 37.7033 40.041C37.679 40.002 37.6429 39.9716 37.6002 39.9543C37.5575 39.937 37.5104 39.9336 37.4656 39.9446C37.4209 39.9555 37.3807 39.9804 37.351 40.0155C35.808 41.9669 34.5145 44.1019 33.5005 46.3712C31.8985 49.9153 30.2842 55.3638 31.692 61.1936C31.6987 61.2214 31.7108 61.2477 31.7276 61.2709C31.7444 61.294 31.7657 61.3137 31.7902 61.3286C31.8146 61.3436 31.8418 61.3536 31.8702 61.3581C31.8986 61.3626 31.9275 61.3614 31.9554 61.3547C31.9834 61.3481 32.0097 61.3359 32.0329 61.3191C32.0561 61.3023 32.0757 61.281 32.0907 61.2566C32.1057 61.2322 32.1156 61.2051 32.1201 61.1768C32.1245 61.1486 32.1233 61.1197 32.1165 61.0919C30.7375 55.3815 32.3245 50.032 33.8986 46.5497C34.8955 44.3168 36.1673 42.216 37.6848 40.2958C37.7145 40.2608 37.7323 40.2172 37.7356 40.1715Z" fill="#3F3D56"/>
</g>
<defs>
<clipPath id="clip0_33_711">
<rect width="237" height="119" fill="white"/>
</clipPath>
</defs>
</svg>
