<svg width="16" height="16" viewBox="0 0 16 16" fill="none" xmlns="http://www.w3.org/2000/svg">
<path d="M4.66667 7.33331V4.66665C4.66667 3.78259 5.01786 2.93475 5.64298 2.30962C6.2681 1.6845 7.11595 1.33331 8 1.33331C8.88406 1.33331 9.7319 1.6845 10.357 2.30962C10.9821 2.93475 11.3333 3.78259 11.3333 4.66665V7.33331M3.33333 7.33331H12.6667C13.403 7.33331 14 7.93027 14 8.66665V13.3333C14 14.0697 13.403 14.6666 12.6667 14.6666H3.33333C2.59695 14.6666 2 14.0697 2 13.3333V8.66665C2 7.93027 2.59695 7.33331 3.33333 7.33331Z" stroke="#525050" stroke-width="2" stroke-linecap="round" stroke-linejoin="round"/>
</svg>
