<svg width="17" height="17" viewBox="0 0 17 17" fill="none" xmlns="http://www.w3.org/2000/svg">
<path d="M15.4062 4.25H1.59375C1.30035 4.25 1.0625 4.48785 1.0625 4.78125V12.2188C1.0625 12.5122 1.30035 12.75 1.59375 12.75H15.4062C15.6997 12.75 15.9375 12.5122 15.9375 12.2188V4.78125C15.9375 4.48785 15.6997 4.25 15.4062 4.25Z" stroke="#070504" stroke-linecap="round" stroke-linejoin="round"/>
<path d="M8.5 10.625C9.67361 10.625 10.625 9.67361 10.625 8.5C10.625 7.32639 9.67361 6.375 8.5 6.375C7.32639 6.375 6.375 7.32639 6.375 8.5C6.375 9.67361 7.32639 10.625 8.5 10.625Z" stroke="#070504" stroke-linecap="round" stroke-linejoin="round"/>
<path d="M11.6875 4.25L15.9375 7.96875" stroke="#070504" stroke-linecap="round" stroke-linejoin="round"/>
<path d="M11.6875 12.75L15.9375 9.03125" stroke="#070504" stroke-linecap="round" stroke-linejoin="round"/>
<path d="M5.3125 4.25L1.0625 7.96875" stroke="#070504" stroke-linecap="round" stroke-linejoin="round"/>
<path d="M5.3125 12.75L1.0625 9.03125" stroke="#070504" stroke-linecap="round" stroke-linejoin="round"/>
</svg>
