<svg width="24" height="24" viewBox="0 0 24 24" fill="none" xmlns="http://www.w3.org/2000/svg">
<g clip-path="url(#clip0_463_138)">
<path d="M6.30845 20.3734H6.79687V18.6241H9.82427V20.3734H10.3135V18.6241H13.4837V20.3734H13.9738V18.6241H17.3468V20.3734H17.8352V18.6241H20.6402V18.1365H17.8352V14.9671H20.6402V14.4778H17.8352V11.5892H20.6402V11.1016H17.8352V9.15033H17.3468V11.1016H13.9738V9.15033H13.4837V11.1016H10.3135V9.15033H9.82427V11.1016H6.79605V9.15033H6.30845V11.1016H3.07584V11.5892H6.30845V14.4778H3.07584V14.9671H6.30845V18.1365H3.07584V18.6241H6.30845V20.3734ZM10.3127 18.1365V14.9671H13.4829V18.1365H10.3127ZM17.3468 18.1365H13.9738V14.9671H17.3468V18.1365ZM17.3468 11.5892V14.4778H13.9738V11.5892C13.9738 11.59 17.3468 11.59 17.3468 11.5892ZM13.4837 11.5892V14.4778H10.3135V11.5892C10.3135 11.59 13.4837 11.59 13.4837 11.5892ZM6.79605 11.5892H9.82345V14.4778H6.79605V11.5892ZM6.79605 14.9671H9.82345V18.1365H6.79605V14.9671Z" fill="#070504"/>
<path d="M23.9754 2.05548L20.586 2.05876L20.091 2.06041V4.06992C20.091 4.60595 19.6526 5.0443 19.1158 5.0443H17.9764C17.4379 5.0443 17.0012 4.60677 17.0012 4.06992V2.06369L15.7017 2.06533V4.06992C15.7017 4.60595 15.2626 5.0443 14.7241 5.0443H13.5847C13.047 5.0443 12.6095 4.60677 12.6095 4.06992V2.06615L11.2288 2.06944V4.07074C11.2288 4.60677 10.7904 5.04512 10.2528 5.04512H9.11256C8.57653 5.04512 8.13736 4.60759 8.13736 4.07074V2.07272H6.7156V4.07074C6.7156 4.60677 6.27807 5.04512 5.7404 5.04512H4.60102C4.06252 5.04512 3.625 4.60759 3.625 4.07074V2.07682L0 2.08011V23.5485H1.71563H22.2868L24 23.5436L23.9754 2.05548ZM22.2868 21.8403H1.71563V8.12423H22.2868V21.8403Z" fill="#070504"/>
<path d="M4.60102 4.35314H5.7404C5.8742 4.35314 5.98338 4.24396 5.98338 4.10934V0.694484C5.98338 0.559039 5.8742 0.450684 5.7404 0.450684H4.60102C4.46558 0.450684 4.3564 0.559039 4.3564 0.694484V4.10934C4.3564 4.24396 4.46558 4.35314 4.60102 4.35314Z" fill="#070504"/>
<path d="M9.11256 4.35314H10.2528C10.3874 4.35314 10.4966 4.24396 10.4966 4.10934V0.694484C10.4957 0.559039 10.3866 0.450684 10.2519 0.450684H9.11174C8.97794 0.450684 8.86876 0.559039 8.86876 0.694484V4.10934C8.86958 4.24396 8.97876 4.35314 9.11256 4.35314Z" fill="#070504"/>
<path d="M13.5847 4.35314H14.7241C14.8604 4.35314 14.9695 4.24396 14.9695 4.10934V0.694484C14.9687 0.559039 14.8604 0.450684 14.7241 0.450684H13.5847C13.4501 0.450684 13.3409 0.559039 13.3409 0.694484V4.10934C13.3409 4.24396 13.4501 4.35314 13.5847 4.35314Z" fill="#070504"/>
<path d="M17.9764 4.35314H19.1158C19.2504 4.35314 19.3588 4.24396 19.3588 4.10934V0.694484C19.3588 0.559039 19.2504 0.450684 19.1158 0.450684H17.9764C17.8418 0.450684 17.7326 0.559039 17.7326 0.694484V4.10934C17.7334 4.24396 17.8418 4.35314 17.9764 4.35314Z" fill="#070504"/>
</g>
<defs>
<clipPath id="clip0_463_138">
<rect width="24" height="24" fill="white"/>
</clipPath>
</defs>
</svg>
