<svg width="30" height="30" viewBox="0 0 30 30" fill="none" xmlns="http://www.w3.org/2000/svg">
<rect width="30" height="30" rx="5" fill="#FBD4D7"/>
<path d="M9.70584 17.6469C11.1678 17.6469 12.3529 16.4618 12.3529 14.9998C12.3529 13.5379 11.1678 12.3528 9.70584 12.3528C8.24391 12.3528 7.05878 13.5379 7.05878 14.9998C7.05878 16.4618 8.24391 17.6469 9.70584 17.6469Z" stroke="#ED2939" stroke-width="2" stroke-linecap="round" stroke-linejoin="round"/>
<path d="M18.9705 23.6027C20.4325 23.6027 21.6176 22.4176 21.6176 20.9557C21.6176 19.4937 20.4325 18.3086 18.9705 18.3086C17.5086 18.3086 16.3235 19.4937 16.3235 20.9557C16.3235 22.4176 17.5086 23.6027 18.9705 23.6027Z" stroke="#ED2939" stroke-width="2" stroke-linecap="round" stroke-linejoin="round"/>
<path d="M18.9705 11.6911C20.4325 11.6911 21.6176 10.506 21.6176 9.04403C21.6176 7.5821 20.4325 6.39697 18.9705 6.39697C17.5086 6.39697 16.3235 7.5821 16.3235 9.04403C16.3235 10.506 17.5086 11.6911 18.9705 11.6911Z" stroke="#ED2939" stroke-width="2" stroke-linecap="round" stroke-linejoin="round"/>
<path d="M16.7454 10.4751L11.931 13.5688" stroke="#ED2939" stroke-width="2" stroke-linecap="round" stroke-linejoin="round"/>
<path d="M11.931 16.4309L16.7454 19.5247" stroke="#ED2939" stroke-width="2" stroke-linecap="round" stroke-linejoin="round"/>
</svg>
