<svg width="15" height="15" viewBox="0 0 15 15" fill="none" xmlns="http://www.w3.org/2000/svg">
<path d="M7.26288 10.4613L10.0277 12.2167C10.3843 12.4416 10.8231 12.107 10.7189 11.6956L9.91798 8.54677C9.89632 8.45949 9.89976 8.36787 9.92791 8.28246C9.95605 8.19705 10.0078 8.12133 10.0771 8.06403L12.5566 5.99591C12.8803 5.7271 12.7157 5.18402 12.2933 5.15659L9.05672 4.94813C8.9684 4.94299 8.8835 4.91224 8.81239 4.85963C8.74127 4.80703 8.68701 4.73484 8.65626 4.6519L7.44939 1.61281C7.41745 1.52498 7.35925 1.44911 7.2827 1.3955C7.20615 1.34189 7.11496 1.31313 7.02151 1.31313C6.92805 1.31313 6.83686 1.34189 6.76031 1.3955C6.68376 1.44911 6.62557 1.52498 6.59362 1.61281L5.38676 4.6519C5.356 4.73484 5.30175 4.80703 5.23063 4.85963C5.15951 4.91224 5.07461 4.94299 4.9863 4.94813L1.74972 5.15659C1.32732 5.18402 1.16274 5.7271 1.4864 5.99591L3.96595 8.06403C4.03526 8.12133 4.08696 8.19705 4.11511 8.28246C4.14325 8.36787 4.1467 8.45949 4.12504 8.54677L3.38447 11.4652C3.25829 11.9589 3.78492 12.3594 4.20733 12.0906L6.78014 10.4613C6.85228 10.4154 6.93601 10.3911 7.02151 10.3911C7.10701 10.3911 7.19073 10.4154 7.26288 10.4613Z" fill="#FFBC1F" stroke="#FFBC1F" stroke-linecap="round" stroke-linejoin="round"/>
</svg>
