<svg width="15" height="15" viewBox="0 0 15 15" fill="none" xmlns="http://www.w3.org/2000/svg">
<path d="M7.48016 10.4613L10.245 12.2167C10.6015 12.4416 11.0404 12.107 10.9362 11.6956L10.1353 8.54677C10.1136 8.45949 10.117 8.36787 10.1452 8.28246C10.1733 8.19705 10.225 8.12133 10.2943 8.06403L12.7739 5.99591C13.0976 5.7271 12.933 5.18402 12.5106 5.15659L9.274 4.94813C9.18569 4.94299 9.10079 4.91224 9.02967 4.85963C8.95855 4.80703 8.9043 4.73484 8.87354 4.6519L7.66668 1.6128C7.63473 1.52498 7.57654 1.44911 7.49999 1.3955C7.42344 1.34189 7.33225 1.31313 7.23879 1.31313C7.14534 1.31313 7.05415 1.34189 6.9776 1.3955C6.90105 1.44911 6.84285 1.52498 6.81091 1.6128L5.60404 4.6519C5.57329 4.73484 5.51903 4.80703 5.44791 4.85963C5.3768 4.91224 5.2919 4.94299 5.20359 4.94813L1.967 5.15659C1.5446 5.18402 1.38003 5.7271 1.70369 5.99591L4.18324 8.06403C4.25254 8.12133 4.30425 8.19705 4.33239 8.28246C4.36054 8.36787 4.36398 8.45949 4.34233 8.54677L3.60175 11.4652C3.47558 11.9589 4.00221 12.3594 4.42461 12.0906L6.99742 10.4613C7.06957 10.4154 7.15329 10.391 7.23879 10.391C7.32429 10.391 7.40802 10.4154 7.48016 10.4613V10.4613Z" stroke="#070504" stroke-linecap="round" stroke-linejoin="round"/>
</svg>
