<svg width="30" height="30" viewBox="0 0 30 30" fill="none" xmlns="http://www.w3.org/2000/svg">
<g clip-path="url(#clip0_493_2281)">
<path d="M29.5803 1.02924C29.0201 0.087784 27.6941 -0.00837067 27.0039 0.842203L15.4877 15.0402C15.2058 15.3876 14.67 15.3685 14.4135 15.0023L11.6534 11.0606C10.7142 9.71939 8.75916 9.63311 7.70541 10.8858C6.97866 11.7498 6.92366 12.9942 7.57106 13.9189L13.2208 21.9873C13.9084 22.9693 15.3635 22.9677 16.0488 21.9837L17.6706 19.6556L29.5167 2.73764C29.872 2.23019 29.8967 1.56172 29.5803 1.02924Z" fill="#2AC769"/>
<path d="M14.9832 29.8015C6.81231 29.8015 0.164795 23.154 0.164795 14.9832C0.164795 6.81234 6.81231 0.164825 14.9832 0.164825C16.9826 0.164825 18.9238 0.556689 20.7518 1.32988C21.4216 1.6134 21.7351 2.38626 21.4515 3.05605C21.1687 3.72617 20.3955 4.03966 19.7254 3.75614C18.2241 3.12125 16.6283 2.7992 14.9832 2.7992C8.26484 2.7992 2.79917 8.26487 2.79917 14.9832C2.79917 21.7015 8.26484 27.1672 14.9832 27.1672C21.7015 27.1672 27.1671 21.7015 27.1671 14.9832C27.1671 13.9136 27.0288 12.853 26.7558 11.8308C26.5681 11.1281 26.9857 10.406 27.6884 10.2183C28.3908 10.0302 29.1129 10.4481 29.3006 11.1512C29.6329 12.3949 29.8015 13.6841 29.8015 14.9832C29.8015 23.154 23.154 29.8015 14.9832 29.8015Z" fill="#2AC769"/>
</g>
<defs>
<clipPath id="clip0_493_2281">
<rect width="30" height="30" fill="white"/>
</clipPath>
</defs>
</svg>
