<svg width="25" height="25" viewBox="0 0 25 25" fill="none" xmlns="http://www.w3.org/2000/svg">
<path d="M21.0938 7.03125H3.90625C3.47478 7.03125 3.125 7.38103 3.125 7.8125V20.3125C3.125 20.744 3.47478 21.0938 3.90625 21.0938H21.0938C21.5252 21.0938 21.875 20.744 21.875 20.3125V7.8125C21.875 7.38103 21.5252 7.03125 21.0938 7.03125Z" stroke="#ED2939" stroke-width="2" stroke-linecap="round" stroke-linejoin="round"/>
<path d="M16.4062 7.03125V5.46875C16.4062 5.05435 16.2416 4.65692 15.9486 4.3639C15.6556 4.07087 15.2582 3.90625 14.8438 3.90625H10.1562C9.74185 3.90625 9.34442 4.07087 9.0514 4.3639C8.75837 4.65692 8.59375 5.05435 8.59375 5.46875V7.03125" stroke="#ED2939" stroke-width="2" stroke-linecap="round" stroke-linejoin="round"/>
<path d="M3.125 15.625H21.875" stroke="#ED2939" stroke-width="2" stroke-linecap="round" stroke-linejoin="round"/>
</svg>
