<svg width="25" height="25" viewBox="0 0 25 25" fill="none" xmlns="http://www.w3.org/2000/svg">
<path d="M12.5 17.5781C14.6574 17.5781 16.4062 15.8292 16.4062 13.6719C16.4062 11.5145 14.6574 9.76562 12.5 9.76562C10.3426 9.76562 8.59375 11.5145 8.59375 13.6719C8.59375 15.8292 10.3426 17.5781 12.5 17.5781Z" stroke="#ED2939" stroke-width="2" stroke-linecap="round" stroke-linejoin="round"/>
<path d="M19.1406 11.3281C20.0505 11.3266 20.9482 11.5377 21.7621 11.9447C22.5759 12.3516 23.2834 12.943 23.8281 13.6719" stroke="#ED2939" stroke-width="2" stroke-linecap="round" stroke-linejoin="round"/>
<path d="M1.17188 13.6719C1.7166 12.943 2.4241 12.3516 3.23795 11.9447C4.05179 11.5377 4.94947 11.3266 5.85938 11.3281" stroke="#ED2939" stroke-width="2" stroke-linecap="round" stroke-linejoin="round"/>
<path d="M6.875 21.0937C7.38948 20.0401 8.18953 19.1521 9.18403 18.531C10.1785 17.9099 11.3275 17.5806 12.5 17.5806C13.6725 17.5806 14.8215 17.9099 15.816 18.531C16.8105 19.1521 17.6105 20.0401 18.125 21.0937" stroke="#ED2939" stroke-width="2" stroke-linecap="round" stroke-linejoin="round"/>
<path d="M5.85937 11.3281C5.26625 11.3287 4.6852 11.1605 4.18413 10.8432C3.68305 10.5258 3.28264 10.0724 3.02967 9.53592C2.77671 8.99945 2.68164 8.40206 2.75558 7.81357C2.82952 7.22507 3.06941 6.66977 3.44722 6.21254C3.82503 5.75532 4.32516 5.41506 4.88917 5.23151C5.45318 5.04797 6.05778 5.02873 6.63232 5.17604C7.20686 5.32334 7.72761 5.63111 8.13373 6.06338C8.53985 6.49566 8.81457 7.03458 8.92578 7.61719" stroke="#ED2939" stroke-width="2" stroke-linecap="round" stroke-linejoin="round"/>
<path d="M16.0742 7.61719C16.1854 7.03458 16.4601 6.49566 16.8663 6.06338C17.2724 5.63111 17.7931 5.32334 18.3677 5.17604C18.9422 5.02873 19.5468 5.04797 20.1108 5.23151C20.6748 5.41506 21.175 5.75532 21.5528 6.21254C21.9306 6.66977 22.1705 7.22507 22.2444 7.81357C22.3184 8.40206 22.2233 8.99945 21.9703 9.53592C21.7174 10.0724 21.3169 10.5258 20.8159 10.8432C20.3148 11.1605 19.7337 11.3287 19.1406 11.3281" stroke="#ED2939" stroke-width="2" stroke-linecap="round" stroke-linejoin="round"/>
</svg>
