<svg width="25" height="25" viewBox="0 0 25 25" fill="none" xmlns="http://www.w3.org/2000/svg">
<path d="M8.59375 15.625C11.3983 15.625 13.6719 13.3514 13.6719 10.5469C13.6719 7.7423 11.3983 5.46875 8.59375 5.46875C5.78918 5.46875 3.51562 7.7423 3.51562 10.5469C3.51562 13.3514 5.78918 15.625 8.59375 15.625Z" stroke="#ED2939" stroke-width="2" stroke-miterlimit="10"/>
<path d="M15.1758 5.6543C15.6247 5.53255 16.0876 5.47017 16.5527 5.46875C17.8995 5.46875 19.1912 6.00377 20.1435 6.9561C21.0958 7.90843 21.6309 9.20007 21.6309 10.5469C21.6309 11.8937 21.0958 13.1853 20.1435 14.1377C19.1912 15.09 17.8995 15.625 16.5527 15.625" stroke="#ED2939" stroke-width="2" stroke-linecap="round" stroke-linejoin="round"/>
<path d="M1.5625 19.2774C2.35542 18.1491 3.40824 17.2282 4.63204 16.5924C5.85584 15.9567 7.21467 15.6248 8.59375 15.6248C9.97283 15.6248 11.3317 15.9567 12.5555 16.5924C13.7793 17.2282 14.8321 18.1491 15.625 19.2774" stroke="#ED2939" stroke-width="2" stroke-linecap="round" stroke-linejoin="round"/>
<path d="M16.5527 15.625C17.9319 15.6241 19.291 15.9556 20.515 16.5914C21.7389 17.2272 22.7916 18.1485 23.584 19.2773" stroke="#ED2939" stroke-width="2" stroke-linecap="round" stroke-linejoin="round"/>
</svg>
