<svg width="30" height="29" viewBox="0 0 30 29" fill="none" xmlns="http://www.w3.org/2000/svg">
<path d="M15.0001 28.7401H28.6174C29.6554 28.7401 30.3221 27.6378 29.8404 26.7184L16.2231 0.739751C15.7061 -0.246583 14.2944 -0.246583 13.7774 0.739751L0.159722 26.7188C-0.322278 27.6381 0.344722 28.7404 1.38272 28.7404L15.0001 28.7401Z" fill="#F6A609"/>
<path d="M15.0001 20.7338C14.4821 20.7338 14.0561 20.3261 14.0334 19.8084L13.1411 11.1984C13.0601 10.1168 13.9154 9.19476 15.0001 9.19476C16.0847 9.19476 16.9404 10.1171 16.8591 11.1984L15.9667 19.8084C15.9441 20.3258 15.5181 20.7338 15.0001 20.7338Z" fill="white"/>
<path d="M14.9988 25.5874C15.8504 25.5874 16.5408 24.897 16.5408 24.0454C16.5408 23.1938 15.8504 22.5034 14.9988 22.5034C14.1472 22.5034 13.4568 23.1938 13.4568 24.0454C13.4568 24.897 14.1472 25.5874 14.9988 25.5874Z" fill="white"/>
</svg>
